<svg width="574" height="476" viewBox="0 0 574 476" fill="none" xmlns="http://www.w3.org/2000/svg"><g clip-path="url(#a)"><path d="M34.533 467.12H574v2.333H34.533v-2.333z" fill="#CACACA"/><path d="M436.867 458.992h-15.338l-7.298-58.826h22.638l-.002 58.826z" fill="#FFB8B8"/><path d="M391.946 473.152l48.207.002.001-18.521-29.581-.001a18.677 18.677 0 0 0-13.171 5.424 18.472 18.472 0 0 0-5.456 13.096z" fill="#2F2E41"/><path d="M518.476 456.06l-15.205 2.015-15.054-57.351 22.439-2.974 7.82 58.31z" fill="#FFB8B8"/><path d="M475.832 476l47.784-6.335-2.462-18.358-29.322 3.887a18.647 18.647 0 0 0-12.334 7.108A18.446 18.446 0 0 0 475.832 476zm20.853-259.963l-86.328 3.732 3.753 217.699 22.52-2.488 17.516-148.035 41.288 157.987 22.52-3.732-21.269-225.163z" fill="#2F2E41"/><path d="M439.132 86.66l30.027-6.099 18.767 136.719s-55.05 36.076-72.566-1.244l23.772-129.375z" fill="#0181FF"/><path d="M452.23 70.604c-16.971 0-30.729-13.68-30.729-30.554 0-16.875 13.758-30.554 30.729-30.554s30.729 13.68 30.729 30.554-13.758 30.554-30.729 30.554z" fill="#FFB8B8"/><path d="M469.159 79.197l43.79 13.684S491.68 198.62 526.712 253.356c0 0-43.79 46.028-62.557-57.224 0 0-15.014-83.347 5.004-116.935zm-30.027 7.463l-32.529 19.904s-17.516 145.548 0 159.232c17.515 13.684 32.529-179.135 32.529-179.135z" fill="#2F2E41"/><path d="M393.078 286.903a12.5 12.5 0 0 0 3.045-4.497 12.453 12.453 0 0 0-.669-10.564 12.54 12.54 0 0 0-3.587-4.083l13.225-42.464-22.311 6.444-9.138 39.337a12.517 12.517 0 0 0-1.829 8.748 12.56 12.56 0 0 0 4.476 7.749 12.699 12.699 0 0 0 8.522 2.837 12.686 12.686 0 0 0 8.266-3.507zm112.382-12.281a12.533 12.533 0 0 0 3.599-4.073 12.458 12.458 0 0 0 .697-10.562 12.532 12.532 0 0 0-3.032-4.506l18.583-40.431-22.957 3.55-14.128 37.851a12.537 12.537 0 0 0-2.94 8.444 12.543 12.543 0 0 0 3.442 8.254 12.703 12.703 0 0 0 16.736 1.473z" fill="#FFB8B8"/><path d="M501.689 94.125l11.26-1.244 28.777 93.3-28.777 64.688-22.52-13.684 25.023-53.492-20.018-57.224 6.255-32.344zm-88.83 11.196l-6.256 1.244-30.027 145.548 20.018 6.22 23.772-85.836-7.507-67.176zm60.487-52.725a17.45 17.45 0 0 0-3.458-8.253 17.582 17.582 0 0 0-7.107-5.477c-5.915-2.411-12.588-1.392-18.964-.931-6.376.461-13.474.06-18.076-4.352-4.203-4.032-5.148-10.722-3.118-16.167 2.03-5.444 6.626-9.672 11.847-12.273A51.27 51.27 0 0 1 451.324.714c8.521-1.023 17.272-1.154 25.577 1 8.306 2.155 6.164 6.773 11.031 13.803 4.867 7.03 6.325 16.607 2.615 24.303-2.483 5.15-6.933 9.047-11.266 12.795" fill="#2F2E41"/><path d="M160.695 213.155c-21.127 0-38.253-17.13-38.253-38.261 0-21.131 17.126-38.262 38.253-38.262s38.254 17.131 38.254 38.262-17.127 38.261-38.254 38.261z" fill="#0181FF"/><path d="M152.781 202.722a39.247 39.247 0 0 0 36.265-24.237 39.265 39.265 0 0 0-28.607-53.532 39.249 39.249 0 0 0-40.295 16.695 39.26 39.26 0 0 0-6.616 21.812 39.31 39.31 0 0 0 11.51 27.749 39.292 39.292 0 0 0 27.743 11.513zm0-76.524a37.25 37.25 0 0 1 34.419 23.003 37.274 37.274 0 0 1-8.076 40.608 37.245 37.245 0 0 1-40.599 8.077 37.253 37.253 0 0 1-22.998-34.426 37.297 37.297 0 0 1 37.254-37.262z" fill="#3F3D56"/><path d="M174.947 156.372a3.366 3.366 0 0 0 2.726.407l30.461-7.624a25.155 25.155 0 0 0 22.636 10.325 25.1 25.1 0 0 0 20.127-36.319 25.096 25.096 0 0 0-41.171-5.342 25.21 25.21 0 0 0-6.252 18.593l-28.191 13.832a3.411 3.411 0 0 0-1.745 4.343c.267.73.761 1.356 1.409 1.785z" fill="#3F3D56"/><path d="M228.515 145.896c-6.314 0-11.432-5.12-11.432-11.435s5.118-11.434 11.432-11.434 11.432 5.119 11.432 11.434c0 6.315-5.118 11.435-11.432 11.435z" fill="#0181FF"/><path d="M135.735 82.759a3.621 3.621 0 0 0 2.333.546 3.415 3.415 0 0 0 3.128-3.483l-.028-31.408a25.095 25.095 0 0 0 14.919-16.762 25.102 25.102 0 0 0-4.446-21.997 25.098 25.098 0 0 0-34.603-4.81 25.102 25.102 0 0 0-5.883 34.443 25.184 25.184 0 0 0 16.524 10.566l6.598 30.706a3.385 3.385 0 0 0 1.458 2.198z" fill="#E6E6E6"/><path d="M131.846 36.516c-6.314 0-11.432-5.12-11.432-11.435s5.118-11.435 11.432-11.435c6.313 0 11.432 5.12 11.432 11.435s-5.119 11.435-11.432 11.435z" fill="#CCC"/><path d="M11.378 157.433a25.192 25.192 0 0 0 22.473 2.5 25.2 25.2 0 0 0 14.247-13.48l31.383 1.025a3.498 3.498 0 0 0 3.012-5.457 3.501 3.501 0 0 0-2.054-1.436l-30.474-7.57a25.103 25.103 0 0 0-12.651-18.536 25.105 25.105 0 0 0-32.699 7.426 25.109 25.109 0 0 0 6.763 35.528z" fill="#E6E6E6"/><path d="M25.073 147.852c-6.313 0-11.432-5.119-11.432-11.435 0-6.315 5.119-11.434 11.432-11.434 6.314 0 11.433 5.119 11.433 11.434 0 6.316-5.119 11.435-11.433 11.435z" fill="#CCC"/><path d="M99.939 257.905a25.097 25.097 0 0 0 38.458-24.812 25.101 25.101 0 0 0-9.507-16.148l8.586-30.21-.48-.137.48.137a3.498 3.498 0 0 0-6.455-2.597l-14.716 27.743a25.159 25.159 0 0 0-22.818 9.915 25.114 25.114 0 0 0-.848 28.871 25.114 25.114 0 0 0 7.219 7.186l.08.052z" fill="#3F3D56"/><path d="M113.584 248.291c-6.314 0-11.432-5.119-11.432-11.434 0-6.315 5.118-11.435 11.432-11.435s11.432 5.12 11.432 11.435-5.118 11.434-11.432 11.434z" fill="#0181FF"/><path d="M244.239 276.962a25.1 25.1 0 0 0 26.166.697 25.105 25.105 0 0 0 9.512-9.715 25.122 25.122 0 0 0-1.245-26.152 25.104 25.104 0 0 0-36.374-5.585l-27.229-15.641a3.496 3.496 0 0 0-5.221 3.403c.091.86.497 1.655 1.14 2.233l23.354 20.994a25.194 25.194 0 0 0 9.897 29.766z" fill="#E6E6E6"/><path d="M258.657 267.811c-6.314 0-11.432-5.119-11.432-11.435 0-6.315 5.118-11.434 11.432-11.434s11.432 5.119 11.432 11.434c0 6.316-5.118 11.435-11.432 11.435z" fill="#CCC"/></g><defs><clipPath id="a"><path fill="#fff" transform="matrix(-1 0 0 1 574 0)" d="M0 0h574v476H0z"/></clipPath></defs></svg>