<svg width="575" height="274" viewBox="0 0 575 274" fill="none" xmlns="http://www.w3.org/2000/svg"><path d="M14.2583 73.7888L14.6117 87.6521L14.7827 94.3602C14.8131 95.5523 14.8265 96.7451 14.8739 97.9378C14.903 98.6704 14.8456 100.053 15.7481 100.262C16.4323 100.25 17.0823 100.022 17.6131 99.6066C18.6029 99.0609 19.5788 98.4885 20.5612 97.9297L26.0888 94.7855L37.5127 88.2875C37.8091 88.1375 38.1579 88.1182 38.4858 88.2337C38.8136 88.3491 39.0948 88.5902 39.2699 88.9063C39.4451 89.2223 39.5007 89.5886 39.4248 89.9278C39.349 90.2669 39.1477 90.5526 38.8635 90.7244C32.2316 94.4967 25.6402 98.3508 18.9639 102.043C17.8668 102.81 16.5099 103.109 15.1493 102.884C14.4085 102.639 13.7435 102.162 13.2484 101.521C12.7532 100.879 12.453 100.104 12.39 99.3068C12.1822 97.3803 12.1018 95.4506 12.1496 93.5315L11.9957 87.4943L11.6423 73.6309C11.6493 73.2776 11.7878 72.9507 12.0286 72.7192C12.2694 72.4877 12.5936 72.3698 12.933 72.3903C13.2724 72.4108 13.6003 72.568 13.8475 72.8289C14.0948 73.0898 14.2421 73.434 14.2583 73.7887L14.2583 73.7888Z" fill="#3F3D56"/><path d="M158.497 34.8123C136.835 38.7573 121.002 56.2527 99.5032 60.7279C94.5884 61.8108 89.4706 61.9838 84.375 61.2392C79.9221 60.4124 75.5133 59.2251 71.1893 57.6882C62.3802 54.8096 52.9322 51.8969 44.6801 56.561C33.8133 62.703 30.3211 76.1713 27.3625 87.9946C26.9443 89.6657 24.4047 88.8224 24.8233 87.1495C27.542 76.2851 30.5802 64.7292 38.9134 57.3169C42.6119 53.9202 47.2915 51.8527 52.3342 51.3875C56.8159 51.1763 61.3544 51.7855 65.7473 53.1877C70.299 54.4873 74.7671 56.1724 79.3331 57.4036C84.1358 58.7538 89.0682 59.2265 93.9058 58.8004C104.334 57.7819 113.802 53.1083 122.687 48.0446C133.841 41.6881 144.875 34.4844 157.79 32.1323C159.419 31.8356 160.138 34.5134 158.497 34.8123L158.497 34.8123Z" fill="#3F3D56"/><path d="M281.086 53.2784L282.103 110.189L282.103 262C282.133 263.7 279.451 263.235 279.421 261.555L278.694 69.0304L278.405 52.833C278.375 51.1335 281.056 51.5982 281.086 53.2784Z" fill="#3F3D56"/><path d="M295.728 243.293C293.704 253.953 289.458 263.946 283.247 272.663C283.124 272.817 282.964 272.938 282.78 273.018C282.597 273.099 282.394 273.135 282.187 273.126C281.981 273.116 281.776 273.061 281.588 272.963C281.4 272.866 281.235 272.729 281.104 272.564L262.025 248.989C260.911 247.613 263.016 246.109 264.132 247.488L283.211 271.063L281.068 270.963C287.02 262.618 291.096 253.053 293.047 242.847C293.359 241.207 296.042 241.643 295.728 243.293L295.728 243.293Z" fill="#3F3D56"/><path d="M526.217 52.1289L547.24 105.957L553.165 121.129C553.794 122.738 551.364 123.643 550.741 122.048L529.718 68.2194L523.792 53.0477C523.164 51.4386 525.594 50.5331 526.217 52.1289Z" fill="#3F3D56"/><path d="M559.828 101.959C561.778 113.044 561.579 124.514 559.245 135.661C559.199 135.866 559.11 136.059 558.985 136.225C558.861 136.391 558.703 136.525 558.525 136.618C558.347 136.71 558.153 136.759 557.958 136.759C557.763 136.76 557.571 136.713 557.398 136.622L532.789 122.758C532.504 122.589 532.294 122.305 532.205 121.966C532.116 121.628 532.154 121.261 532.311 120.944C532.468 120.626 532.732 120.382 533.047 120.264C533.362 120.146 533.703 120.162 533.999 120.31L558.609 134.173L556.762 135.133C559.018 124.464 559.233 113.481 557.396 102.858C557.099 101.156 559.528 100.241 559.828 101.959L559.828 101.959Z" fill="#3F3D56"/></svg>