<svg width="92" height="81" viewBox="0 0 92 81" fill="none" xmlns="http://www.w3.org/2000/svg"><path d="M90.98 69.62L52.647 3.806A7.688 7.688 0 0 0 46 0a7.688 7.688 0 0 0-6.647 3.807L1.02 69.62A7.52 7.52 0 0 0 0 73.406C0 77.598 3.435 81 7.667 81h76.666C88.565 81 92 77.598 92 73.406c0-1.38-.37-2.673-1.02-3.787zM7.662 73.413l38.33-65.82H46l.005.007 38.328 65.805-76.671.008zM46 55.687c-2.821 0-5.111 2.269-5.111 5.063 0 2.797 2.287 5.063 5.111 5.063s5.111-2.269 5.111-5.063c0-2.794-2.287-5.063-5.111-5.063zm-5.111-22.78c0 .288.025.574.071.85l2.518 14.762A2.553 2.553 0 0 0 46 50.625a2.548 2.548 0 0 0 2.52-2.106l2.517-14.762c.049-.276.074-.562.074-.85 0-2.795-2.287-5.063-5.111-5.063-2.821 0-5.111 2.268-5.111 5.062z" fill="#fff"/></svg>