<svg width="464" height="308" viewBox="0 0 464 308" fill="none" xmlns="http://www.w3.org/2000/svg"><path d="M166.437 177.257c15.901-27.94 46.233-49.393 78.343-47.326a147.984 147.984 0 0 0-38.99 93.908c-.527 13.468.291 28.503-8.663 38.588-5.57 6.276-14.085 9.315-22.457 9.952-8.373.638-16.743-.873-25.004-2.378l-2.004.615c-.763-32.13 2.874-65.42 18.775-93.359z" fill="#F0F0F0"/><path d="M244.827 130.603c-23.744 11.418-43.99 30.486-56.419 53.74-2.687 5.028-4.975 10.362-5.973 16.001-.998 5.642-.301 11.013 1.629 16.371 1.764 4.899 4.136 9.706 4.676 14.948.571 5.525-1.465 10.691-5.128 14.791-4.483 5.017-10.503 8.126-16.496 10.961-6.654 3.149-13.615 6.314-18.328 12.19-.571.712-1.643-.215-1.073-.926 8.199-10.223 22.235-12.145 31.968-20.38 4.541-3.843 7.951-9.076 7.735-15.208-.188-5.362-2.63-10.321-4.458-15.266-1.921-5.192-2.878-10.413-2.19-15.948.705-5.663 2.789-11.097 5.335-16.172 5.743-11.443 13.603-21.949 22.607-31.031a128.963 128.963 0 0 1 35.656-25.411c.82-.394 1.274.949.459 1.34z" fill="#fff"/><path d="M192.049 176.571a18.97 18.97 0 0 1-5.737-23.911c.415-.811 1.697-.205 1.281.608a17.562 17.562 0 0 0-1.422 12.109 17.58 17.58 0 0 0 6.804 10.122c.74.535-.191 1.604-.926 1.072zm-9.207 37.778a36.647 36.647 0 0 0 23.199-13.208c.574-.71 1.647.217 1.074.926a38.122 38.122 0 0 1-24.169 13.695c-.905.13-1.004-1.284-.104-1.413zm36.918-68.371a10.765 10.765 0 0 0 9.618 3.425c.903-.141 1.001 1.272.104 1.412a12.057 12.057 0 0 1-10.649-3.765.732.732 0 0 1-.073-.999.715.715 0 0 1 1-.073z" fill="#fff"/><path d="M308.667 218.07c-.561.104-1.123.208-1.689.323a141.699 141.699 0 0 0-22.158 6.118c-.56.194-1.125.4-1.679.611a149.445 149.445 0 0 0-46.988 28.561 144.985 144.985 0 0 0-15.219 15.93c-6.437 7.855-12.79 16.884-21.202 22.006a24.808 24.808 0 0 1-2.708 1.466l-48.456-20.075c-.087-.101-.179-.191-.267-.292l-1.971-.713c.22-.31.454-.627.674-.937.127-.181.265-.357.391-.537.088-.119.177-.238.249-.35.03-.04.059-.079.084-.108.072-.112.152-.209.22-.31a468.736 468.736 0 0 1 3.966-5.307c.004-.011.004-.011.02-.017 10.219-13.407 21.649-26.079 34.641-36.615.391-.317.786-.645 1.199-.953a138.477 138.477 0 0 1 18.713-12.644 122.936 122.936 0 0 1 11.101-5.483 101.9 101.9 0 0 1 30.835-7.855c21.186-1.965 42.764 2.86 59.013 16.153.415.341.82.677 1.231 1.028z" fill="#F0F0F0"/><path d="M308.303 218.639c-25.84-5.163-53.5-2.114-77.441 8.98-5.175 2.398-10.217 5.281-14.413 9.184-4.198 3.904-6.879 8.612-8.568 14.05-1.545 4.973-2.549 10.237-5.276 14.748-2.876 4.754-7.615 7.655-13.011 8.726-6.603 1.309-13.284.171-19.778-1.169-7.21-1.487-14.676-3.146-21.981-1.289-.885.225-1.183-1.16-.299-1.384 12.709-3.232 25.074 3.674 37.809 2.951 5.943-.337 11.819-2.465 15.344-7.49 3.081-4.395 4.121-9.823 5.641-14.871 1.597-5.3 3.979-10.044 7.866-14.05 3.975-4.098 8.915-7.184 14.007-9.704 11.483-5.683 24.091-9.345 36.754-11.182a129.107 129.107 0 0 1 43.787 1.154c.893.178.446 1.523-.441 1.346z" fill="#fff"/><path d="M238.454 223.603a18.968 18.968 0 0 1 .77-13.075 18.995 18.995 0 0 1 9.062-9.467c.821-.398 1.479.857.658 1.256a17.587 17.587 0 0 0-8.436 8.813 17.565 17.565 0 0 0-.668 12.174c.268.871-1.12 1.165-1.386.299zm-30.123 24.626a36.676 36.676 0 0 0 26.485 3.406c.886-.222 1.184 1.163.3 1.384a38.15 38.15 0 0 1-27.553-3.599c-.801-.441-.028-1.629.768-1.191zm70.69-32.389a10.737 10.737 0 0 0 5.615 8.518c.806.431.032 1.619-.769 1.191a12.052 12.052 0 0 1-6.232-9.41.73.73 0 0 1 .543-.842.713.713 0 0 1 .843.543z" fill="#fff"/><path d="M216.362 251.19c-6.786-32.773-15.268-43.7-15.268-43.7l-3.241-2.51-3.897-3.024.019-.388-.925-.314-.217-.169-.356-.273-.057.062-.121.125-17.634-5.987-22.373-7.591-10.36-13.45a17.91 17.91 0 0 0-6.346-5.173 17.95 17.95 0 0 0-7.988-1.811l-33.086.245a17.929 17.929 0 0 0-12.053 4.775l-21.747 20.149-33.886 16.164-.058-.057-.355.254-5.236 2.501.216 1.123-3.24 2.336s-8.483 10.167-15.27 40.662c-1.726 7.76-2.575 24.405-2.882 44.916a7.823 7.823 0 0 0 4.81 7.337 7.838 7.838 0 0 0 3.025.608h203.582a7.85 7.85 0 0 0 5.579-2.333 7.834 7.834 0 0 0 2.256-5.604c-.299-22.319-1.149-40.458-2.891-48.873z" fill="#3F3D56"/><path d="M239.584 28.581a26.567 26.567 0 0 0-18.774 7.768 26.504 26.504 0 0 0-7.776 18.752 26.504 26.504 0 0 0 7.776 18.752 26.567 26.567 0 0 0 18.774 7.767h197.865a26.565 26.565 0 0 0 18.774-7.767A26.5 26.5 0 0 0 464 55.101a26.501 26.501 0 0 0-7.777-18.752 26.565 26.565 0 0 0-18.774-7.768H239.584z" fill="#E5E5E5"/><path d="M239.584 33.948a21.188 21.188 0 0 0-14.974 6.196 21.138 21.138 0 0 0 0 29.914 21.188 21.188 0 0 0 14.974 6.195h197.865a21.19 21.19 0 0 0 14.975-6.195 21.138 21.138 0 0 0 0-29.914 21.19 21.19 0 0 0-14.975-6.196H239.584z" fill="#fff"/><path d="M116.251 154.572c23.939 0 43.346-19.384 43.346-43.296 0-23.911-19.407-43.295-43.346-43.295-23.94 0-43.346 19.384-43.346 43.295 0 23.912 19.406 43.296 43.346 43.296z" fill="#9E616A"/><path d="M105.162 152.452c-.185-.407-.37-.816-.554-1.226.071.002.141.013.212.014l.342 1.212zM71.7 69.95c2.191-1.747 4.754-3.354 7.557-3.264 2.803.09 5.645 2.619 5.064 5.36a44.53 44.53 0 0 1 23.146-19.78 44.594 44.594 0 0 1 30.46-.298c6.966 2.455 13.798 7.366 15.398 14.57.411 1.85.499 3.877 1.655 5.378 1.458 1.893 4.246 2.322 6.542 1.656l.069-.02a2.05 2.05 0 0 1 2.697 1.707 2.04 2.04 0 0 1-.222 1.18l-1.971 3.672c2.484.553 5.066.498 7.525-.16a2.05 2.05 0 0 1 2.21.825 2.038 2.038 0 0 1-.037 2.356c-6.499 8.913-17.358 14.669-28.439 14.601-7.876-.048-15.833-2.759-23.498-.95a20.42 20.42 0 0 0-13.714 11.032 20.362 20.362 0 0 0-.014 17.587c-2.355-2.572-6.907-1.963-9.315.559-2.409 2.522-3.033 6.287-2.79 9.764.371 5.319 2.457 10.33 4.657 15.207-18.44-.579-35.88-13.499-41.75-30.973-5.895-17.547.283-38.467 14.77-50.01z" fill="#2F2E41"/><path opacity=".2" d="M42.664 241.295l12.157 66.07 7.295.635-19.452-66.705zm133.918-4.982l-12.157 71.005-7.295.682 19.452-71.687z" fill="#000"/><path d="M82.069 47.714c-2.331.972-4.764-.093-5.784-2.533-1.035-2.478-.068-4.992 2.3-5.98 2.369-.988 4.758.08 5.81 2.597 1.037 2.48.08 4.913-2.326 5.916zm-4.466-13.39l-1.853.773a2.002 2.002 0 0 1-2.54-.93l-.091-.179c-1.995-3.592-2.223-7.959-.675-12.97 1.433-4.496 2.029-7.658.831-10.522-1.384-3.312-4.34-4.35-8.11-2.846-1.463.61-1.928.6-3.08 1.74a2.641 2.641 0 0 1-2.907.562 2.555 2.555 0 0 1-.833-.586 2.604 2.604 0 0 1-.017-3.556 20.26 20.26 0 0 1 6.85-4.698c8.102-3.379 12.18 1.608 14.046 6.073 1.825 4.366.799 8.416-.851 13.663-1.383 4.36-1.302 7.59.268 10.801a1.987 1.987 0 0 1-1.037 2.675zM283.29 67.749h-39.368a.944.944 0 0 1-.674-.275.946.946 0 0 1 .31-1.549.942.942 0 0 1 .364-.07h39.368a.95.95 0 0 1 .942.947.948.948 0 0 1-.942.947zm49.941.316h-39.368a.952.952 0 0 1-.882-.584.947.947 0 0 1 .882-1.31h39.368a.944.944 0 0 1 .674.274.946.946 0 0 1-.31 1.549.944.944 0 0 1-.364.07zm49.94.315h-39.368a.948.948 0 0 1 0-1.894h39.368a.95.95 0 0 1 .955.947.947.947 0 0 1-.955.947zm49.94.316h-39.367a.95.95 0 0 1-.942-.947.948.948 0 0 1 .942-.947h39.367a.95.95 0 0 1 .942.947.948.948 0 0 1-.942.947zM263.52 59.032a7.311 7.311 0 0 0 7.316-7.308 7.312 7.312 0 0 0-7.316-7.308c-4.041 0-7.317 3.272-7.317 7.308 0 4.037 3.276 7.309 7.317 7.309zm50.242 0c4.041 0 7.317-3.271 7.317-7.308 0-4.036-3.276-7.308-7.317-7.308s-7.317 3.272-7.317 7.308c0 4.037 3.276 7.309 7.317 7.309zm50.242 0c4.041 0 7.317-3.271 7.317-7.308 0-4.036-3.276-7.308-7.317-7.308s-7.317 3.272-7.317 7.308c0 4.037 3.276 7.309 7.317 7.309zm50.242 0c4.041 0 7.317-3.271 7.317-7.308 0-4.036-3.276-7.308-7.317-7.308s-7.317 3.272-7.317 7.308c0 4.037 3.276 7.309 7.317 7.309z" fill="#0181FF"/></svg>