<svg width="276" height="421" fill="none" xmlns="http://www.w3.org/2000/svg"><mask id="a" style="mask-type:alpha" maskUnits="userSpaceOnUse" x="0" y="0" width="276" height="421"><path fill="#C4C4C4" d="M0 0h276v421H0z"/></mask><g mask="url(#a)"><path d="M87.88 394.335c-.1-.7-1.2-.7-2.1-1.5-5.7-4.3 11.5-5.1 13.1-5.2 5.701-.1 11.601.7 17.301.3 14.5-1 28.9-4.5 43.5-4 12.5.4 25.1 3.8 37.4 1.3 2.6-.5 5.3-1.3 7.7-.3 2.4 1 3.7 4.7 1.6 6.2 10.2.6 20.5 1.3 30.7 1.9.9.1 1.9.2 2.5.9.6.8.2 2.1-.6 2.7-.8.6-1.9.8-2.9 1-11.1 1.8-22.2 3.5-33.3 5.3 7.8.6 15.5 2.9 22.4 6.7 1.4.8 3 2 2.6 3.5-.3 1.5-2.2 2.1-3.7 2.3-16.4 2.3-33.3 1.4-49.4-2.5 1.8 1.3 1 4.3-.9 5.4-1.9 1.1-4.2.8-6.4.5-7.3-1.1-14.6-2.1-21.9-3.2 1.2 2.5-1 5.5-3.7 6.2-2.7.7-5.5 0-8.2-.5-14-2.3-27.7 3.7-41.7 4-2.4 0-4.9 0-7.1-1.1-5.3-2.5-5.2-8.9-.9-12.3 2-1.5 4.3-2.2 6.5-3.2-1.2.6-5.4-.6-6.8-.7-2.6-.2-5.2-.3-7.8-.6-5-.5-9.9-1.4-14.7-2.6-1-.2-2-.5-2.7-1.3-1.9-2.3 2-4.1 3.6-4.4 4.9-1.1 9.9-1.6 14.9-2.1 2.4-.2 4.9 0 7.3-.6.9-.2 3.2-.7 3.6-1.6 0-.1.1-.3.1-.5ZM140.881 362.535c-.7.5-1.9.4-2.5-.3-.6-.7-.8-1.7-.4-2.6.4-.8 1.2-1.4 2.1-1.6 1-.2 2.2.2 2.9 1 .8.8-1.2 2.8-2.1 3.5ZM138.481 338.535c.8-.5 1.7-.6 2.6-.5.4 0 .7.1 1.1.2 4.1 1.3 2.2 4.1-1 4-2 0-6.2-1.6-2.7-3.7ZM55.58 405.935c-1.4.3-2.8.3-4.2 0-1.4-.3-2.8-.9-4-1.6-.6-.4-1.2-.8-1.7-1.6-.2-.4-.3-1-.2-1.5.2-.5.5-.9.9-1.1.7-.4 1.6-.4 2.2-.4.7 0 1.3 0 1.9-.3-.4.6-1.2.9-1.9 1-.6.1-1.1.2-1.6.6-.4.4-.4.6-.2 1s.8.7 1.3 1.1c2.3 1.4 4.8 2.3 7.5 2.8ZM44.28 405.035c-.6.4-1.4.6-2.2.5-.8-.1-1.5-.4-2.2-.8-.6-.4-1.2-1.1-1.5-1.7-.3-.7-.5-1.5-.3-2.2.8 1.3 1.6 2.1 2.7 2.8 1 .6 2.1 1.1 3.5 1.4Z" fill="#fff"/><path d="M73.98 417.435c-.7.4-1.5.4-2.3.2-.8-.2-1.5-.7-2-1.4s-.7-1.5-.7-2.3c0-.8.4-1.6 1-2.1-.1.8 0 1.4.1 2 .1.6.4 1.1.7 1.6.3.5.7.9 1.3 1.2.6.3 1.2.6 1.9.8ZM183.281 420.835c2 .2 4 .3 6 .4 2 .1 4 .2 6 .2s4-.1 6-.2 4-.3 6-.4c-1.9.7-3.9 1.2-5.9 1.5-2 .3-4.1.5-6.1.5s-4.1-.2-6.1-.5-4-.8-5.9-1.5ZM227.381 419.135l-.2-.1c2.5-.5 5-1.3 7.1-2.5 1.1-.6 2.1-1.3 3-2.1.9-.8 1.6-1.8 1.2-2.6-.2-.8-1.4-1.3-2.6-1.7-1.2-.4-2.5-.7-3.7-1l-7.5-1.8c2.6 0 5.2.2 7.7.7 1.3.2 2.5.5 3.8.8.6.2 1.3.4 2 .7.6.3 1.3.9 1.6 1.8.3.8.1 1.8-.3 2.4-.4.7-.9 1.2-1.4 1.6-1.1.8-2.2 1.5-3.4 2.1-2.4 1.1-5 1.7-7.6 1.6l.3.1ZM236.38 399.935c1.5-.7 3-1.4 4.6-1.9 1.5-.6 3.401-.9 3.801-1.9.5-.8-1.101-2-2.301-2.8-1.3-.8-2.8-1.4-4.5-1.9 1.7-.2 3.4.2 5 .9.8.4 1.5.8 2.2 1.4.4.3.701.7.901 1.2.2.5.2 1.2 0 1.7-.5 1.1-1.5 1.6-2.3 1.8-.9.2-1.601.4-2.401.6-1.7.4-3.4.7-5 .9ZM199.781 382.435c2.1-1.1 4.7-1.2 7-.5 1.2.3 2.2.9 3.2 1.6 1 .7 1.8 1.6 2.3 2.7-1.9-1.3-3.8-2.3-5.9-2.9-2.1-.8-4.3-1-6.6-.9Z" fill="#fff"/><path d="M183.581 390.435h3.9c1.3-.1 2.5-.2 3.8-.4.6-.1 1.2-.2 1.9-.4.6-.1 1.2-.3 1.6-.5.3-.2.4-.6 0-1-.3-.4-1-.6-1.6-.7.6-.1 1.4-.2 2.1.2.3.2.6.6.7 1.1.1.5-.1 1-.4 1.3-.6.7-1.4.8-2 1-.7.2-1.3.3-2 .5-2.7.3-5.6.1-8-1.1ZM175.48 390.835c2.4.9 4.8 1.6 7.3 2 1.2.2 2.5.3 3.7.3 1.2 0 2.5 0 3.8-.1-1.2.6-2.4 1-3.8 1.2-1.3.2-2.7.2-4 0-2.6-.5-5.2-1.6-7-3.4ZM98.677 400.251c-.428.075-.68.411-.648.697-.11.311.001.656.176.916.35.522.922 1.077 1.414 1.573.985.993 2.113 1.96 3.161 2.869 1.048.908 2.302 1.708 3.476 2.448 1.175.741 2.492 1.456 3.809 2.171-1.474-.177-2.981-.641-4.345-1.129-1.381-.631-2.635-1.431-3.825-2.314-1.128-.968-2.192-2.019-3.13-3.239-.43-.58-.858-1.16-1.177-2.051-.112-.345-.113-1.001.14-1.337.173-.395.648-.697.95-.604ZM189.081 409.335l3 .3c1 .1 1.9.2 2.9.2 1 .1 1.9.1 2.9.2.5 0 .9 0 1.2-.2.4-.2.7-.5.7-1 .3.5.1 1.2-.3 1.6-.4.4-1 .6-1.6.7-1 .2-2.1.2-3.1.2-1.9-.3-4-.8-5.7-2ZM186.38 406.435c.5-.5 1.201-.9 1.901-1.2.7-.3 1.399-.5 2.099-.6.7-.1 1.501-.1 2.201 0 .7.1 1.399.3 2.099.7-.7.2-1.399.3-2.099.4-.7.1-1.3.2-2 .3-.7.1-1.3.2-2 .2-.8.1-1.501.2-2.201.2ZM123.881 391.735c3.1-1 6.3-1.4 9.5-1.6 3.2-.2 6.5-.2 9.7-.1 6.5.2 12.9.8 19.3 2.1 3.2.6 6.3 1.4 9.5 2.2 1.6.4 3.1.9 4.7 1.4.8.3 1.6.5 2.4.9.4.2.8.6 1.1 1.1.3.5.3 1.1.2 1.6-.2 1-.9 1.8-1.7 2.3-.8.5-1.6.7-2.3 1-1.5.5-3.1 1.1-4.6 1.5-3.1.9-6.3 1.7-9.5 2.4-6.4 1.3-12.9 1.9-19.4 1.9-6.5 0-13-.6-19.4-1.7-3.2-.5-6.4-1.2-9.5-1.9-1.6-.3-3.2-.7-4.7-1.3-.8-.3-1.5-.6-2.1-1.2-.1-.2-.3-.3-.4-.5l-.3-.6c-.1-.4 0-.9.2-1.2.5-.7 1.2-1.1 1.9-1.5.7-.4 1.5-.7 2.2-1 1.5-.6 2.9-1.4 4.4-2.1 2.8-1.4 5.7-2.8 8.8-3.7Zm0 0c-3.1 1-6 2.5-8.8 3.9-1.4.7-2.8 1.5-4.4 2.1-.7.3-1.5.6-2.2 1-.7.4-1.4.8-1.8 1.5-.5.7-.1 1.5.5 2s1.3.8 2.1 1.1c1.5.5 3.1.8 4.7 1.1 3.2.5 6.4 1.2 9.6 1.6 6.4.9 12.8 1.4 19.2 1.2 6.4-.1 12.8-.8 19.1-2.1 3.1-.6 6.3-1.4 9.4-2.3 1.5-.5 3.1-.9 4.6-1.5.8-.3 1.5-.5 2.1-.9.6-.4 1-.9 1.1-1.5.1-.6-.1-1.1-.7-1.4-.6-.4-1.3-.6-2.1-.9-1.5-.5-3-1.1-4.6-1.5-3.1-1-6.2-1.8-9.3-2.5-6.3-1.4-12.7-2.3-19.2-2.6-3.2-.1-6.5-.1-9.7 0-3.3.3-6.5.7-9.6 1.7Z" fill="#BFDFFF"/><path d="M120.781 399.135c-.2-.9.3-1.8 1.1-2.3.8-.5 1.7-.6 2.6-.7 10.7-1.4 21.5-2.9 32.3-1.8 1.1.1 2.3.3 3.2.8 1 .5 1.8 1.6 1.7 2.7-.1 1.7-1.9 2.6-3.5 3.1-6.8 2.4-14.1 3.4-21.3 2.8-3.3-.3-15.1-.8-16.1-4.6Z" fill="#BFDFFF"/><path d="M132.281 398.235c1.9.3 4-.7 5-2.4.4-.7.6-1.6 1.1-2.3.5-.7 1.3-1.3 2.1-1.1.8.2 1.2.9 1.5 1.6.3.7.5 1.5 1 2.1.9 1.1 2.5 1.2 3.9 1.1 1.1-.1 6.5.2 3.8 1.8" fill="#BFDFFF"/><path d="M132.281 398.235c2.2 0 4.1-1.3 4.7-3.1l.6-1.5c.3-.5.7-1.1 1.2-1.5.5-.4 1.4-.6 2.2-.2.7.3 1.1.9 1.4 1.4.5 1.1.7 2.1 1.3 2.6.6.5 1.6.7 2.6.7 1.1 0 2.2.1 3.3.4.5.1 1.1.3 1.6.6.1.1.3.2.3.4s-.1.4-.2.5c-.2.2-.5.3-.7.4.2-.2.4-.4.5-.6.1-.2 0-.3-.2-.4-.4-.2-1-.2-1.5-.3-1.1-.1-2.1-.1-3.1.1-1.1.1-2.4 0-3.5-.7-.5-.4-.9-1-1.1-1.6-.2-.5-.4-1.1-.6-1.4-.2-.4-.5-.7-.7-.8-.3-.1-.6-.1-.9.1-.7.4-1.1 1.3-1.6 2.3-.9 2.1-3.5 3.2-5.6 2.6Z" fill="#BFDFFF"/><path d="M142.805 306.216c-1.307.925-3.549.74-4.669-.555-1.121-1.295-1.494-3.146-.747-4.811.747-1.481 2.241-2.591 3.922-2.961 1.868-.37 4.109.37 5.416 1.85 1.308 1.481-2.428 5.182-3.922 6.477ZM138.369 254.804c1.408-.944 2.992-1.133 4.575-.944.704 0 1.232.189 1.936.378 7.215 2.454 3.871 7.74-1.76 7.552-3.519 0-10.909-3.021-4.751-6.986ZM132 200.001c0-4.214 2.314-8.428 6.052-10.536 3.738-2.107 8.543-2.282 12.459-.175 2.67 1.405 4.806 4.039 4.45 7.024-.178 1.931-1.602 3.687-3.204 5.092-1.602 1.405-3.204 2.634-4.628 4.215-2.136 2.809-3.559 8.604-8.187 6.848-3.916-1.405-6.942-8.604-6.942-12.468ZM125.526 135.913c-16.408-8.564-28.137-26.092-28.783-44.856-.646-18.763 8.388-37.739 24.51-48.628 10.868-7.49 25.442-10.412 36.345-2.967 7.16 4.615 11.118 13.7 13.348 22.761 2.23 9.06 3.777 17.765 7.05 26.493 6.62 13.985 26.302 31.276 10.108 45.638-13.388 12.316-47.537 9.409-62.578 1.559ZM62.372 5.529C22.54-15.261-5.933-57.811-7.501-103.36c-1.568-45.549 20.362-91.614 59.5-118.048 26.382-18.18 61.761-25.275 88.228-7.202 17.382 11.203 26.989 33.257 32.403 55.253 5.414 21.995 9.168 43.125 17.115 64.313 16.07 33.948 63.849 75.925 24.536 110.787-32.498 29.899-115.397 22.842-151.91 3.786Z" fill="#fff"/></g></svg>