<svg width="32" height="32" fill="none" xmlns="http://www.w3.org/2000/svg"><circle cx="16" cy="16" r="16" fill="#0181FF"/><path d="M13.708 23.99v-7.988H12v-2.691c.075-.005.15-.014.23-.014.413 0 .83-.009 1.243.005.182.004.244-.046.24-.236a105.75 105.75 0 0 1-.005-2.062c.005-.775.218-1.477.759-2.039a2.87 2.87 0 0 1 1.921-.883c1.172-.068 2.347-.06 3.523-.082.014 0 .027.014.053.027v2.764c-.084.005-.164.01-.24.01h-1.596c-.537.004-.852.33-.852.87 0 .511 0 1.028.004 1.54 0 .014.009.027.022.077H20c-.115.92-.222 1.799-.337 2.71h-2.396V24c-1.194-.01-2.356-.01-3.559-.01Z" fill="#fff"/></svg>