<svg width="185" height="525" viewBox="0 0 185 525" fill="none" xmlns="http://www.w3.org/2000/svg"><path d="M101.805 438.422c-1.307.925-3.549.74-4.67-.555-1.12-1.296-1.493-3.146-.746-4.812.747-1.48 2.24-2.591 3.922-2.961 1.868-.37 4.109.37 5.416 1.851 1.308 1.48-2.428 5.181-3.922 6.477zM97.37 395.01c1.407-.944 2.991-1.133 4.574-.944.704 0 1.232.189 1.936.377 7.215 2.455 3.871 7.741-1.76 7.552-3.519 0-10.91-3.021-4.75-6.985zM91 345.207c0-4.214 2.314-8.429 6.052-10.536 3.738-2.107 8.543-2.283 12.459-.176 2.67 1.405 4.806 4.039 4.45 7.024-.178 1.932-1.602 3.688-3.204 5.093-1.602 1.405-3.204 2.634-4.628 4.214-2.136 2.81-3.559 8.605-8.187 6.849C94.026 356.27 91 349.07 91 345.207z" fill="#fff"/><path d="M73.095 457.249c4.026 3.539 9.226 5.73 14.593 5.899 3.355.168 6.877-.506 9.058-3.034 2.851-3.202 2.516-8.426 5.367-11.629 2.013-2.191 5.368-3.033 8.219-1.853 2.684 1.179 4.529 4.213 4.361 7.247-.168 2.022-1.174 4.044-.335 5.898.838 2.023 3.354 2.865 5.535 2.528 2.18-.337 4.026-1.854 5.703-3.202 4.025-2.865 8.219-5.562 12.748-7.921 1.677-.843 3.522-1.685 5.535-1.685 1.845 0 4.025 1.011 4.529 2.865.503 1.517-.168 3.202.335 4.719.671 2.022 3.187 2.865 5.368 2.696 2.18-.168 4.025-1.348 6.206-1.854 2.012-.674 4.528-.674 6.038.674 2.181 1.854 1.677 5.731-.335 7.753-2.013 2.022-4.865 3.034-7.716 3.708-15.767 4.213-31.702 7.921-47.972 9.269-16.27 1.349-32.876.337-48.475-4.55-2.516-.843-5.2-1.686-7.38-3.371-1.174-.843-4.697-4.045-3.522-5.899.838-1.348 5.87-.674 7.38-1.011 5.535-.842 10.735-3.37 14.76-7.247z" fill="#236FBD"/><path d="M33.51 478.147c-2.516-.168-5.535-.337-6.373-2.696-.84-2.191 1.174-4.382 3.522-5.056 2.18-.506 4.529.168 6.877.337 2.348.337 4.864 0 6.206-1.854 1.677-2.191.503-5.899-1.845-7.584-2.348-1.686-5.367-2.023-8.219-2.36-2.851-.337-5.87-.674-8.051-2.359-2.18-1.686-3.355-5.393-1.342-7.584 1.174-1.349 3.187-1.686 5.032-1.686 6.374-.168 12.58 2.697 16.941 7.416 2.348 2.697 4.193 5.899 6.542 8.595 2.348 2.697 5.535 5.056 9.057 5.056 3.523 0 7.213-3.202 6.71-6.741-.504-3.371-4.194-5.225-7.38-6.404-3.188-1.349-6.71-3.54-6.71-6.91 0-2.865 2.516-5.056 5.2-5.562 2.684-.506 5.535.169 8.219 1.011 4.193 1.348 8.722 3.034 11.238 6.742 2.516 3.707 2.683 8.763 5.032 12.64 2.516 4.55 7.716 7.078 12.915 7.584 5.2.505 10.232-.674 15.264-2.191 14.593-4.382 28.347-11.461 40.256-20.73 2.18-1.685 4.696-3.708 7.38-3.876 2.852-.169 5.871 2.359 5.032 5.224-.671 2.36-3.522 3.034-5.703 3.708-6.038 1.854-11.573 5.393-15.599 10.449-.671.843-1.51 2.191-1.006 3.202.503 1.012 2.012 1.18 3.187.675 1.174-.506 2.012-1.349 3.019-1.854 4.696-2.023 9.225 3.539 14.257 4.213 3.858.506 7.38-2.022 11.071-3.539 3.69-1.517 8.889-1.517 10.399 2.022 1.174 2.697-.671 6.067-3.187 7.584-5.367 3.034-11.909.337-18.115.169-8.89-.337-17.78 5.224-21.135 13.483-1.509 3.539-2.012 7.415-4.528 10.449-3.02 3.708-7.884 4.887-12.58 5.73-12.58 2.696-25.16 5.225-37.908 5.056-10.064-.169-21.302-2.191-29.857-7.753-3.187-2.022-3.522-4.213-4.193-7.752-.838-4.214-3.02-7.753-5.87-10.786-3.858-3.203-8.723-5.731-13.755-6.068z" fill="#fff"/><path d="M170.716 470.9c.671-1.011 1.51-1.685 2.516-2.191 1.007-.505 1.845-1.011 3.019-1.348a7.868 7.868 0 0 1 3.523-.337 8.176 8.176 0 0 1 1.845.674c.335.169.503.506.671.674.167.337.167.674.167.843-1.006-.674-1.845-.506-2.683-.337-.839.168-1.845.505-2.852.843-2.013.337-3.858 1.011-6.206 1.179zM25.962 451.519a10.39 10.39 0 0 1 4.361-1.517c1.51-.169 3.187-.169 4.697.337 1.51.337 3.02 1.011 4.193 2.022 1.342.843 2.349 2.191 3.02 3.54-1.342-.674-2.684-1.349-4.026-1.854-1.342-.506-2.516-1.011-3.858-1.349-2.516-.842-5.367-1.011-8.387-1.179zm34.888-5.393c1.343-.169 2.685 0 3.859.337 1.342.337 2.516.674 3.69 1.348 1.174.506 2.348 1.348 3.355 2.191 1.006.843 2.012 2.023 2.18 3.371-1.006-.843-2.18-1.348-3.187-1.854l-3.355-1.517c-2.18-1.18-4.36-2.191-6.541-3.876z" fill="#BFDFFF"/><path d="M52.129 496.181c-3.187.674-6.039 2.191-8.051 4.382-.504.505-.84 1.179-1.175 1.685-.167.506-.167 1.011 0 1.348.504.843 1.846 1.517 3.355 2.023l4.529 1.516 2.348.675c.839.168 1.845.674 2.516 1.348.336.337.671 1.011.839 1.348.167.506.167.843.335 1.18.168.674.503 1.18 1.174 1.517 1.174.842 2.852.842 4.53.842-1.51.506-3.188.843-5.033.169-.839-.337-1.677-1.011-2.013-2.023-.335-.842-.503-1.516-.838-1.853-.839-.675-2.516-.843-4.194-1.18a21.881 21.881 0 0 1-4.696-1.517 15.267 15.267 0 0 1-2.348-1.18c-.84-.505-1.678-1.179-2.18-2.191-.504-1.011-.504-2.359 0-3.202.502-1.011 1.006-1.685 1.676-2.191 2.349-1.854 5.871-3.033 9.226-2.696zM72.76 519.27c10.064 1.685 20.128 2.865 30.192 3.202 2.516 0 5.032 0 7.38-.506 1.174-.168 2.348-.674 3.355-1.179 1.006-.506 2.18-1.18 3.354-1.686 2.349-1.348 4.865-2.022 7.548-2.359 2.516-.337 5.2-.337 7.716-.337-5.032.842-10.064 1.685-14.257 4.382-1.007.674-2.181 1.348-3.355 2.022-1.174.674-2.516 1.18-3.858 1.517-2.683.674-5.367.674-7.883.674-10.4-.506-20.631-2.191-30.192-5.73zm64.577-7.079c2.181-.168 4.194-.674 6.039-1.516 1.006-.506 1.845-1.012 2.683-1.517.839-.506 1.678-1.349 1.678-1.854 0-.337-.168-.506-.168-.506s-.168 0-.503-.168c-.168-.169-.671-.169-1.007-.674-.503-.337-.671-1.18-.503-1.854.168-.674.503-.843.839-1.18.671-.506 1.342-.674 1.845-.843l6.038-2.022c1.007-.337 2.181-.674 3.019-1.011l1.007-.506c.168-.168.335-.506.335-.674 0-.169 0-.337-.335-.506-.168-.168-.671-.337-1.174-.505-.839-.169-2.013-.337-3.019-.506-4.194-.674-8.387-1.18-12.748-1.685 4.361-.506 8.722-.674 12.915-.169 1.174.169 2.181.169 3.355.337a8.176 8.176 0 0 1 1.845.674c.671.338 1.174 1.18 1.342 2.191 0 1.854-1.51 3.034-2.684 3.54-1.174.505-2.013.674-3.187 1.011l-6.206 1.854c-.503.168-1.006.337-1.174.505-.168 0-.168.169-.168 0v-.337l.336.169c.167.168.671.168 1.006.505.671.675.839 1.686.671 2.36-.168.843-.671 1.348-1.174 1.854-.503.505-1.007.674-1.51 1.011-1.006.506-2.013 1.011-3.019 1.348-2.013.843-4.361 1.011-6.374.674z" fill="#fff"/><path d="M73.095 501.911c-1.51-1.011-2.851-2.023-4.025-3.202-1.174-1.18-2.516-2.36-3.355-4.045-.839-1.517-1.342-3.708-.168-5.393.504-.843 1.51-1.517 2.516-1.686 1.007-.168 2.013 0 2.852.337 1.677.675 3.187 1.854 4.529 2.697l4.193 2.865a149.352 149.352 0 0 1 8.387 5.899l-1.678 1.011c-.335-1.854-.503-4.045.671-6.067.503-1.012 1.51-1.854 2.684-2.191 1.006-.337 2.348-.506 3.522.168s1.678 1.854 2.18 2.697c.336.843.672 1.685 1.007 1.854.336.337.671.337 1.342.168.503-.168 1.174-.842 1.678-1.348 1.006-1.18 1.845-3.034 3.186-4.382 1.342-1.517 3.523-2.696 6.039-2.191 1.174.337 2.18 1.18 2.851 2.191.336.506.503 1.18.503 1.854 0 .674-.335 1.348-.67 1.854a6.42 6.42 0 0 1-.839 1.011c-.168.169-.168.506-.168.506 0 .168 0 0-.168 0 0 0 .168 0 .504-.169.503-.337 1.174-1.18 2.012-1.685.671-.674 1.342-1.18 2.181-1.686a35.398 35.398 0 0 1 4.529-3.033 54.176 54.176 0 0 1 10.064-4.551c.838-.337 1.677-.674 2.683-.674h1.51c.503.169 1.174.506 1.51 1.011.335.506.503 1.18.335 1.686 0 .505-.335 1.011-.503 1.517-.503.842-1.174 1.516-1.677 2.191-2.516 2.696-5.2 5.224-8.219 7.247 2.851-2.36 5.367-4.888 7.548-7.753.503-.674 1.174-1.348 1.509-2.191.336-.674.503-1.517 0-2.022-.335-.506-1.174-.675-1.845-.506-.838.168-1.677.506-2.516.843-3.354 1.179-6.541 2.865-9.561 4.887-1.509 1.011-2.851 2.023-4.361 3.202-.671.506-1.342 1.18-2.012 1.686-.671.505-1.175 1.179-2.181 1.854-.503.337-1.006.674-2.013.505-.503 0-.838-.337-1.174-.674-.335-.337-.503-.843-.503-1.18 0-.842.168-1.517.503-2.022.336-.506.671-.843.839-1.18.335-.506.335-.843 0-1.517-.336-.505-.839-1.011-1.342-1.011-1.174-.337-2.684.337-3.69 1.517-.503.505-1.007 1.348-1.51 2.022-.503.674-1.006 1.517-1.677 2.36a7.434 7.434 0 0 1-2.516 2.022c-.503.169-1.174.337-1.845.337s-1.342-.337-1.845-.842c-1.007-1.012-1.342-2.023-1.678-2.865-.335-.843-.67-1.349-1.006-1.517-.839-.506-2.684 0-3.187 1.179-.839 1.349-1.006 3.034-.67 4.719.167.506-.336 1.18-.84 1.18-.335 0-.503 0-.838-.168-2.852-2.023-5.535-4.045-8.22-6.068l-4.193-3.033c-1.341-1.011-2.683-2.191-4.193-2.697-.67-.337-1.51-.505-2.18-.337-.671 0-1.342.506-1.678 1.011-.838 1.18-.838 3.034 0 4.382.671 1.517 1.845 2.697 3.02 4.045 1.174 1.011 2.348 2.191 3.857 3.371z" fill="#BFDFFF"/><path d="M1.641 465.17c1.342-1.18 3.355-1.517 5.2-1.517 6.541.337 7.715 8.427 1.51 10.618-5.033 1.854-11.407-4.887-6.71-9.101zm11.406-31.853c7.548-3.539 13.922 8.764 5.2 10.618-6.374 1.517-12.58-7.079-5.2-10.618zm19.793-1.685c1.173-1.349 2.85-2.023 4.528-2.36 2.18-.506 4.697-.506 6.877.337 7.884 3.034 6.039 13.82-1.845 15.337-6.374 1.011-14.928-7.416-9.56-13.314zm.335-15.337c6.374 2.191.67 8.595-4.193 7.416-6.374-1.854-1.51-9.27 4.193-7.416zm143.244 14.831c7.213 0 8.051 8.427 1.677 10.618-3.522 1.18-9.393.337-9.56-4.382-.168-4.213 4.361-6.236 7.883-6.236zM76.734 246.87c-10.61-5.538-18.196-16.873-18.614-29.007-.417-12.134 5.425-24.405 15.85-31.446 7.029-4.844 16.453-6.734 23.504-1.919 4.63 2.984 7.189 8.859 8.632 14.719 1.442 5.859 2.442 11.488 4.559 17.132 4.281 9.043 17.008 20.226 6.536 29.513-8.657 7.964-30.74 6.084-40.467 1.008zM54.527 42.163c15.7-14.557 39.334-20.556 60.001-14.01 20.667 6.546 37.801 23.713 43.379 45.473 3.922 14.726 1.435 31.724-10.906 40.718-7.806 6.013-19.231 6.812-29.957 5.74-10.726-1.073-20.798-2.751-31.569-2.559-17.79 1.805-44.26 16.554-53.587-6.627-8.195-19.334 8.248-55.392 22.64-68.735z" fill="#fff"/></svg>