<svg width="82" height="30" viewBox="0 0 82 30" fill="none" xmlns="http://www.w3.org/2000/svg"><path d="M3.508 3.019v.085H1.881v-.085h.103c.09 0 .163-.016.218-.048a.209.209 0 0 0 .092-.11c.017-.037.025-.133.025-.288V.53c0-.159-.008-.258-.025-.298A.223.223 0 0 0 2.19.13a.398.398 0 0 0-.206-.045H1.88V0h1.627v.085h-.103a.431.431 0 0 0-.218.048.22.22 0 0 0-.094.11c-.017.036-.026.132-.026.288v2.042c0 .158.009.258.026.297a.24.24 0 0 0 .103.105.43.43 0 0 0 .209.044h.103zM10.72 0h2.685v.842h-.087a.96.96 0 0 0-.147-.38.535.535 0 0 0-.246-.203A1.242 1.242 0 0 0 12.49.2h-.57v1.21h.412c.444 0 .766.078.966.233.2.156.3.364.3.623a.71.71 0 0 1-.153.458.917.917 0 0 1-.383.286c-.153.062-.378.094-.673.094H10.72v-.085c.193-.003.316-.028.37-.076.055-.048.082-.154.082-.315V.504c0-.176-.027-.29-.082-.341-.055-.052-.179-.078-.37-.078V0zm1.2 1.611v.936c0 .148.02.253.062.314.041.06.118.09.23.09.178 0 .313-.061.403-.182a.723.723 0 0 0 .138-.45.741.741 0 0 0-.124-.438.534.534 0 0 0-.278-.224 1.57 1.57 0 0 0-.431-.046zM20.592.037h1.62V.12h-.052c-.153 0-.256.029-.308.085-.05.055-.075.16-.075.316v.927c.214 0 .353-.007.417-.02a.333.333 0 0 0 .18-.127c.055-.07.107-.204.158-.402.06-.232.117-.406.172-.522a.695.695 0 0 1 .232-.275.64.64 0 0 1 .372-.103.49.49 0 0 1 .353.126.401.401 0 0 1 .133.307.29.29 0 0 1-.09.224.316.316 0 0 1-.222.082c-.174 0-.268-.1-.282-.302-.006-.1-.041-.15-.106-.15-.069 0-.128.038-.177.116a1.762 1.762 0 0 0-.158.419 4.644 4.644 0 0 1-.142.444.674.674 0 0 1-.17.247.62.62 0 0 1 .225.096c.053.04.102.092.145.156.042.062.134.222.275.48l.317.563a.521.521 0 0 0 .174.188c.07.04.152.06.248.06v.084H22.79l-.64-1.19c-.074-.134-.128-.215-.164-.243-.033-.029-.103-.045-.208-.05v1.05c0 .15.03.246.091.287.063.041.178.062.345.062v.084h-1.62v-.084c.178-.003.295-.03.35-.078.057-.05.085-.157.085-.32V.58c0-.181-.022-.303-.066-.366-.045-.062-.146-.094-.303-.094h-.067V.037zM32.86 6.449v1.68h-.165c-.098-.388-.207-.665-.326-.833a1.247 1.247 0 0 0-.491-.408c-.117-.055-.32-.082-.61-.082h-.465v4.788c0 .318.017.516.05.595a.5.5 0 0 0 .207.21.87.87 0 0 0 .423.088h.206v.17h-3.26v-.17h.207a.87.87 0 0 0 .437-.096.438.438 0 0 0 .188-.22c.033-.073.05-.265.05-.577V6.806h-.45c-.42 0-.724.089-.913.266-.267.247-.435.6-.505 1.057h-.175v-1.68h5.592zm2.902.357v2.527h.124c.395 0 .68-.124.858-.37.178-.248.291-.613.34-1.095h.175v3.25h-.175c-.037-.354-.115-.644-.234-.87-.116-.225-.253-.377-.409-.453-.156-.08-.382-.119-.68-.119v1.749c0 .342.015.55.042.627a.39.39 0 0 0 .166.188c.08.049.208.073.385.073h.372c.582 0 1.047-.134 1.396-.403.352-.268.604-.677.757-1.227h.17l-.28 1.973h-5.38v-.17h.206c.18 0 .326-.031.436-.095a.417.417 0 0 0 .184-.22c.033-.073.05-.265.05-.577V7.511c0-.28-.008-.453-.023-.517a.438.438 0 0 0-.17-.247c-.116-.086-.275-.129-.477-.129h-.207V6.45H38.6v1.836h-.174c-.089-.449-.214-.771-.377-.966-.159-.196-.385-.339-.68-.43-.17-.056-.492-.083-.963-.083h-.643zm6.248 3.04v1.72c0 .336.02.548.06.637a.468.468 0 0 0 .22.206c.108.052.302.078.584.078v.17H39.71v-.17c.288 0 .482-.026.583-.078a.465.465 0 0 0 .216-.21c.043-.086.065-.297.065-.632V7.538c0-.335-.022-.546-.065-.631a.438.438 0 0 0-.216-.21c-.104-.053-.298-.079-.583-.079V6.45h2.714c.894 0 1.535.159 1.923.476.39.317.584.714.584 1.19 0 .403-.126.748-.377 1.035-.25.287-.597.482-1.038.586-.297.073-.798.11-1.505.11zm0-3.04v2.683c.102.006.178.009.23.009.373 0 .661-.11.863-.33.202-.223.303-.566.303-1.03 0-.46-.1-.798-.303-1.012-.202-.213-.503-.32-.904-.32h-.188zm7.966.668c-.003-.335-.044-.561-.124-.677-.076-.12-.27-.179-.583-.179h-.206V6.45H52.4v.17h-.215c-.288 0-.48.054-.574.164-.092.11-.138.351-.138.723v4.084c0 .381.047.627.142.737.095.107.285.16.57.16h.215v.17h-3.337v-.17h.206c.291 0 .48-.057.57-.17.091-.116.137-.358.137-.727V8.22l-2.194 3.434c0 .296.036.51.11.64.073.129.272.193.597.193h.216v.17h-3.338v-.17h.206c.291 0 .482-.057.574-.17.092-.116.138-.358.138-.727V7.506c0-.372-.037-.613-.11-.723-.074-.11-.274-.165-.602-.165h-.206V6.45h3.338v.17h-.216c-.282 0-.47.06-.565.182-.095.12-.142.354-.142.705v3.402l2.194-3.434zm8.494-1.025v1.68h-.165c-.098-.388-.207-.665-.326-.833a1.247 1.247 0 0 0-.492-.408c-.116-.055-.32-.082-.61-.082h-.464v4.788c0 .318.017.516.05.595.037.08.106.15.207.21a.87.87 0 0 0 .423.088h.206v.17h-3.26v-.17h.207c.18 0 .326-.032.436-.096a.438.438 0 0 0 .188-.22c.034-.073.051-.265.051-.577V6.806h-.45c-.42 0-.724.089-.914.266-.266.247-.434.6-.505 1.057h-.174v-1.68h5.592zm3.843-.087c.992-.037 1.797.252 2.415.865.621.614.932 1.381.932 2.303 0 .787-.231 1.48-.693 2.078-.613.793-1.477 1.19-2.594 1.19-1.12 0-1.987-.378-2.6-1.135-.483-.598-.725-1.308-.725-2.129 0-.921.314-1.689.942-2.302.63-.617 1.405-.907 2.323-.87zm.055.293c-.57 0-1.003.29-1.3.87-.241.476-.362 1.16-.362 2.05 0 1.06.187 1.842.56 2.349.26.354.625.53 1.093.53.315 0 .578-.075.79-.228.269-.195.478-.507.629-.934.15-.43.224-.99.224-1.68 0-.82-.076-1.434-.23-1.84-.152-.409-.348-.697-.587-.865a1.373 1.373 0 0 0-.817-.252zm6.17 3.191v1.72c0 .336.02.548.06.637a.468.468 0 0 0 .22.206c.108.052.302.078.584.078v.17h-3.164v-.17c.288 0 .482-.026.583-.078a.465.465 0 0 0 .216-.21c.043-.086.064-.297.064-.632V7.538c0-.335-.02-.546-.064-.631a.438.438 0 0 0-.216-.21c-.104-.053-.298-.079-.583-.079V6.45h2.714c.894 0 1.535.159 1.924.476.388.317.583.714.583 1.19 0 .403-.126.748-.377 1.035-.25.287-.597.482-1.037.586-.297.073-.8.11-1.507.11zm0-3.04v2.683c.102.006.178.009.23.009.373 0 .661-.11.863-.33.202-.223.303-.566.303-1.03 0-.46-.1-.798-.303-1.012-.202-.213-.503-.32-.904-.32h-.189zm6.653 5.681v.17h-3.255v-.17h.207c.18 0 .326-.032.436-.096a.417.417 0 0 0 .184-.22c.033-.073.05-.265.05-.577V7.511c0-.317-.017-.516-.05-.595a.447.447 0 0 0-.207-.206.797.797 0 0 0-.413-.092h-.207V6.45h3.255v.17h-.206a.863.863 0 0 0-.437.095.438.438 0 0 0-.188.22c-.034.073-.05.266-.05.577v4.083c0 .318.016.516.05.595.037.08.106.15.207.21a.858.858 0 0 0 .418.088h.206zm4.486-2.66v1.74c0 .335-.022.547-.064.636a.443.443 0 0 1-.216.206c-.104.052-.299.078-.583.078v.17H82v-.17c-.288 0-.484-.026-.588-.078a.496.496 0 0 1-.216-.21c-.04-.086-.06-.297-.06-.632V7.538c0-.335.02-.546.06-.631a.462.462 0 0 1 .22-.21c.105-.053.3-.079.584-.079V6.45h-2.892c-.753 0-1.304.052-1.653.156a1.66 1.66 0 0 0-.854.576c-.22.278-.33.605-.33.98 0 .458.164.836.495 1.135.211.19.507.331.886.426l-1.497 2.101c-.195.272-.335.441-.417.508a.78.78 0 0 1-.437.156v.17h1.96l2.007-2.83h.409zm0-3.044v2.72h-.262c-.425 0-.744-.039-.955-.115a.976.976 0 0 1-.5-.421c-.12-.205-.18-.47-.18-.797 0-.473.11-.822.331-1.048.224-.226.582-.339 1.075-.339h.49zM27.268 17.954h5.372v1.685h-.175c-.058-.311-.156-.565-.294-.76a1.07 1.07 0 0 0-.49-.407c-.19-.077-.481-.115-.873-.115h-1.139v2.417h.822c.888 0 1.532.156 1.933.467.401.311.602.727.602 1.245 0 .354-.103.66-.308.916a1.835 1.835 0 0 1-.767.572c-.306.125-.754.188-1.345.188h-3.338v-.17c.386-.006.632-.056.74-.15.11-.098.165-.309.165-.633v-4.247c0-.352-.055-.579-.166-.683-.11-.103-.356-.155-.739-.155v-.17zm2.401 3.223v1.872c0 .296.042.505.124.628.083.119.236.178.46.178.357 0 .627-.12.808-.362.183-.24.275-.541.275-.901 0-.348-.083-.64-.248-.875-.165-.238-.35-.387-.556-.448-.201-.061-.49-.092-.863-.092zm6.221-2.866v2.527h.124c.395 0 .681-.123.859-.37.178-.248.29-.612.34-1.095h.174v3.25h-.174c-.037-.353-.115-.643-.235-.87-.116-.225-.252-.376-.408-.452-.156-.08-.383-.12-.68-.12v1.75c0 .341.014.55.042.626a.39.39 0 0 0 .165.188c.08.049.208.073.386.073h.372c.581 0 1.046-.134 1.395-.402.352-.269.605-.678.758-1.227h.17l-.28 1.973h-5.381v-.17h.206a.868.868 0 0 0 .437-.096.418.418 0 0 0 .183-.22c.034-.073.05-.265.05-.576v-4.084c0-.28-.007-.453-.022-.517a.438.438 0 0 0-.17-.247c-.117-.085-.276-.128-.478-.128h-.206v-.17h5.21v1.836h-.174c-.088-.449-.214-.77-.376-.966-.16-.195-.386-.339-.68-.43-.171-.055-.492-.082-.964-.082h-.643zm4.32 1.41v-1.909h.17c.034.22.118.33.253.33.061 0 .168-.03.322-.091a3.21 3.21 0 0 1 1.166-.238c.636 0 1.128.157 1.473.471.35.314.524.676.524 1.085a1.402 1.402 0 0 1-.574 1.122c-.205.158-.536.297-.992.416.665.11 1.131.323 1.4.64.27.315.405.654.405 1.017 0 .314-.094.61-.28.888-.184.275-.452.485-.804.632-.349.146-.791.22-1.327.22-.517 0-.927-.07-1.23-.211-.3-.14-.57-.37-.808-.691l.193-.193c.425.458.872.687 1.34.687.386 0 .689-.123.91-.37.223-.25.334-.576.334-.976 0-.305-.07-.569-.21-.792-.142-.225-.311-.373-.51-.444-.2-.073-.495-.114-.887-.123v-.403c.108.003.196.005.267.005.428 0 .731-.118.909-.353.18-.238.27-.584.27-1.04 0-.432-.091-.742-.275-.928a.879.879 0 0 0-.652-.284c-.34 0-.616.134-.83.403-.212.265-.33.642-.354 1.13h-.202zm8.361 4.441v-.17h.198c.303 0 .491-.064.565-.192.073-.128.11-.363.11-.705v-4.738h-2.2v4.738c0 .4.05.65.147.75.098.099.282.147.551.147h.189v.17h-3.256v-.17h.198c.272 0 .453-.052.542-.155.088-.104.133-.351.133-.742v-4.079c0-.369-.042-.61-.124-.723-.083-.113-.267-.17-.551-.17h-.198v-.169h6.947v.17h-.165c-.294 0-.487.058-.579.174-.092.116-.138.355-.138.718v4.08c0 .399.053.65.157.75.104.098.296.146.578.146h.147v.17h-3.25zm5.997-5.851v2.527h.123c.395 0 .681-.123.859-.37.178-.248.29-.612.34-1.095h.174v3.25h-.174c-.037-.353-.115-.643-.234-.87-.117-.225-.253-.376-.409-.452-.156-.08-.383-.12-.68-.12v1.75c0 .341.014.55.042.626a.39.39 0 0 0 .165.188c.08.049.208.073.386.073h.372c.581 0 1.046-.134 1.395-.402.352-.269.605-.678.758-1.227h.17l-.28 1.973h-5.381v-.17h.206a.868.868 0 0 0 .437-.096.417.417 0 0 0 .183-.22c.034-.073.05-.265.05-.576v-4.084c0-.28-.007-.453-.022-.517a.437.437 0 0 0-.17-.247c-.116-.085-.276-.128-.478-.128h-.206v-.17h5.21v1.836h-.174c-.088-.449-.214-.77-.376-.966-.16-.195-.386-.339-.68-.43-.171-.055-.492-.082-.964-.082h-.642zm3.902-.357h3.241v.17h-.105c-.306 0-.511.056-.615.17-.101.109-.152.32-.152.63v1.855c.429 0 .707-.014.836-.041a.666.666 0 0 0 .358-.252c.11-.14.216-.41.317-.806.119-.464.234-.812.344-1.043a1.38 1.38 0 0 1 .464-.55c.199-.137.447-.206.743-.206.294 0 .53.084.708.252.177.165.266.37.266.613a.58.58 0 0 1-.18.449.633.633 0 0 1-.445.165c-.349 0-.537-.202-.564-.604-.013-.202-.083-.303-.212-.303-.137 0-.255.078-.353.234-.098.155-.204.435-.317.837a9.16 9.16 0 0 1-.285.889 1.35 1.35 0 0 1-.34.494c.197.049.347.113.45.192.108.08.204.183.29.311.086.126.27.446.55.962l.634 1.126c.098.168.215.293.35.375.137.08.302.12.495.12v.169h-2.084l-1.281-2.38c-.147-.27-.256-.431-.326-.486-.067-.058-.207-.091-.418-.1v2.1c0 .3.061.49.184.573.125.082.355.123.688.123v.17H58.47v-.17c.358-.006.592-.058.703-.155.113-.101.17-.315.17-.641v-4.152c0-.363-.045-.607-.134-.733-.089-.125-.29-.187-.606-.187h-.133v-.17zm11.386 1.026c-.003-.336-.044-.562-.124-.678-.076-.119-.27-.178-.583-.178h-.206v-.17h3.337v.17h-.215c-.288 0-.48.055-.574.165-.092.11-.138.35-.138.723v4.083c0 .382.047.627.142.737.095.107.285.16.57.16h.215v.17h-3.337v-.17h.206c.291 0 .48-.056.57-.17.091-.115.137-.358.137-.727v-3.369l-2.194 3.433c0 .296.036.51.11.641.073.128.272.192.597.192h.216v.17h-3.338v-.17h.206c.291 0 .482-.056.574-.17.092-.115.138-.358.138-.727v-4.083c0-.372-.037-.614-.11-.723-.074-.11-.274-.165-.602-.165h-.206v-.17h3.338v.17h-.216c-.282 0-.47.06-.565.183-.095.119-.142.354-.142.705v3.401l2.194-3.433z" fill="#066BFF"/><path fill-rule="evenodd" clip-rule="evenodd" d="M23.977 9.674V4.219H0v5.455h.572c.23-1.486.783-2.631 1.656-3.434.622-.574 1.62-.862 2.996-.862h1.475v15.548c0 1.011-.055 1.636-.166 1.873-.15.337-.356.575-.617.714-.361.208-.838.312-1.43.312h-.677v.55h17.109c1.206 0 2.122-.128 2.747-.383a3.744 3.744 0 0 0 1.565-1.166c.418-.523.628-1.145.628-1.867 0-1.058-.41-1.904-1.228-2.539-.819-.635-2.134-.952-3.946-.952h-1.678V12.54h2.325c.8 0 1.393.078 1.78.233.388.15.722.427 1.003.831.282.398.482.915.6 1.55h.356v-3.435H14.104v.345c.781 0 1.284.106 1.51.317.224.212.337.676.337 1.391v8.662c0 .66-.113 1.088-.338 1.288-.192.17-.603.174-1.234.18l-.275.004h-.235a3.04 3.04 0 0 1-1.435-.363c-.33-.199-.557-.427-.677-.684-.11-.258-.166-.902-.166-1.933V5.378h7.162c.954 0 1.621.09 2.003.268.682.327 1.219.768 1.61 1.323.392.545.748 1.446 1.07 2.705h.541zm-4.97 12.433V18.29c.761 0 1.349.062 1.761.186.419.125.797.43 1.134.915.338.479.506 1.073.506 1.783 0 .734-.187 1.347-.562 1.838-.369.492-.918.738-1.65.738-.456 0-.768-.122-.937-.364-.169-.25-.253-.675-.253-1.279z" fill="#066BFF"/><path fill="#2F2E41" d="M0 25.313h25.388v.938H0zm0 1.875h20.686v.938H0zm0 1.875h15.044v.938H0z"/></svg>