<svg width="574" height="476" viewBox="0 0 574 476" fill="none" xmlns="http://www.w3.org/2000/svg"><path d="M288.443 118.209c18.276-4.893 33.967-14.513 46.233-30.394.935-.616 1.605-1.606 1.862-2.753a4.74 4.74 0 0 0-.489-3.364l-21.338-37.562c-.572-1.006-1.493-1.727-2.559-2.004a3.892 3.892 0 0 0-3.127.527l-46.234 30.394c-.935.616-1.604 1.607-1.862 2.753a4.746 4.746 0 0 0 .49 3.364l21.337 37.563c.573 1.006 1.493 1.726 2.56 2.003a3.889 3.889 0 0 0 3.127-.527z" fill="#E6E6E6"/><path d="M300.77 106.148c9.623-1.13 19.624-9.404 29.724-19.54.876-.577 1.503-1.505 1.744-2.579a4.442 4.442 0 0 0-.459-3.15l-18.338-32.282c-.536-.942-1.398-1.617-2.397-1.876a3.644 3.644 0 0 0-2.928.493L266.974 74.26c-.876.577-1.503 1.504-1.744 2.578a4.442 4.442 0 0 0 .459 3.15l11.36 19.999c2.389 4.196 6.229 7.202 10.676 8.357 4.448 1.155 9.139.365 13.045-2.197z" fill="#fff"/><path d="M211.516 177.977c18.276-4.894 33.967-14.513 46.234-30.394.935-.616 1.605-1.606 1.862-2.753a4.746 4.746 0 0 0-.49-3.364l-21.337-37.562c-.573-1.006-1.494-1.727-2.56-2.004a3.893 3.893 0 0 0-3.127.527l-46.233 30.394c-.935.616-1.605 1.606-1.862 2.753a4.74 4.74 0 0 0 .489 3.364l21.338 37.563c.572 1.006 1.493 1.726 2.559 2.003a3.892 3.892 0 0 0 3.127-.527z" fill="#E6E6E6"/><path d="M223.844 165.916c9.623-1.13 19.624-9.404 29.723-19.54.876-.577 1.503-1.505 1.744-2.579a4.445 4.445 0 0 0-.458-3.15l-18.338-32.282c-.537-.942-1.399-1.617-2.397-1.876a3.644 3.644 0 0 0-2.929.493l-41.142 27.046c-.875.578-1.503 1.505-1.744 2.579a4.45 4.45 0 0 0 .459 3.151l11.36 19.998c2.39 4.196 6.23 7.202 10.677 8.356 4.447 1.155 9.138.365 13.045-2.196z" fill="#fff"/><path d="M272.203 201.885c18.276-4.894 33.967-14.514 46.233-30.395.935-.616 1.605-1.606 1.862-2.753a4.74 4.74 0 0 0-.489-3.364l-21.338-37.562c-.572-1.006-1.493-1.727-2.559-2.004a3.896 3.896 0 0 0-3.127.527l-46.234 30.394c-.935.616-1.604 1.607-1.862 2.753a4.746 4.746 0 0 0 .49 3.364l21.337 37.563c.573 1.006 1.494 1.726 2.56 2.003a3.892 3.892 0 0 0 3.127-.526z" fill="#E6E6E6"/><path d="M284.53 189.823c9.623-1.13 19.624-9.404 29.724-19.54.875-.577 1.503-1.505 1.744-2.579a4.44 4.44 0 0 0-.459-3.15l-18.338-32.282c-.536-.942-1.398-1.617-2.397-1.876a3.646 3.646 0 0 0-2.928.493l-41.142 27.047c-.876.577-1.503 1.504-1.744 2.578a4.444 4.444 0 0 0 .459 3.151l11.36 19.998c2.389 4.196 6.229 7.202 10.676 8.357 4.448 1.155 9.139.365 13.045-2.197z" fill="#fff"/><path d="M500.35 455.942c.491.024.978-.115 1.394-.398.415-.283.74-.697.93-1.185.19-.488.235-1.028.131-1.545a2.637 2.637 0 0 0-.716-1.346l-.164-.704.065-.168a6.838 6.838 0 0 1 2.385-3.084 6.126 6.126 0 0 1 3.573-1.146c1.27.005 2.51.414 3.565 1.175a6.844 6.844 0 0 1 2.363 3.102c1.945 5.037 4.42 10.083 5.029 15.409a22.034 22.034 0 0 1-.334 7.053c4.566-10.715 6.937-22.362 6.952-34.149a85.502 85.502 0 0 0-.457-8.853 88.723 88.723 0 0 0-1.052-7.179c-2.448-12.889-7.702-24.97-15.333-35.251-3.693-2.168-6.679-5.501-8.557-9.551a17.824 17.824 0 0 1-1.428-4.614c.417.059 1.571-6.767 1.257-7.186.581-.947 1.62-1.419 2.254-2.343 3.153-4.6 7.498-3.797 9.766 2.454 4.846 2.63 4.892 6.993 1.919 11.189-1.891 2.67-2.151 6.282-3.811 9.14.171.235.349.463.519.698a84.761 84.761 0 0 1 8.122 13.842 37.255 37.255 0 0 1 1.932-16.164c1.848-4.797 5.313-8.837 8.364-12.985 3.665-4.981 11.18-2.807 11.826 3.508l.018.183c-.453.275-.896.567-1.33.876a3.464 3.464 0 0 0-1.213 1.607 3.75 3.75 0 0 0-.157 2.062c.142.689.474 1.315.952 1.798a3.171 3.171 0 0 0 1.73.905l.066.011a37.288 37.288 0 0 1-.853 5.209c3.914 16.285-4.537 22.216-16.603 22.482-.267.147-.526.294-.793.434a91.025 91.025 0 0 1 4.276 21.644 87.27 87.27 0 0 1-.055 13.086l.021-.155c.874-4.84 3.274-9.208 6.795-12.365 5.23-4.621 12.618-6.323 18.26-10.038a3.546 3.546 0 0 1 2.009-.637 3.544 3.544 0 0 1 2.012.627 3.941 3.941 0 0 1 1.382 1.693 4.278 4.278 0 0 1 .295 2.389 21.236 21.236 0 0 0-3.782 2.147 3.464 3.464 0 0 0-1.213 1.607 3.75 3.75 0 0 0-.157 2.062c.142.689.474 1.315.952 1.798a3.171 3.171 0 0 0 1.73.905l.066.011.137.022a35.314 35.314 0 0 1-5.962 10.044c-2.448 14.216-12.96 15.564-24.204 11.425h-.007a89.978 89.978 0 0 1-5.334 16.751h-19.055c-.068-.228-.13-.463-.191-.691 1.764.12 3.534.006 5.273-.338-1.414-1.866-2.828-3.747-4.242-5.613a1.583 1.583 0 0 1-.089-.11c-.717-.955-1.441-1.903-2.158-2.858v-.001a36.603 36.603 0 0 1 .929-8.691h.001z" fill="#F2F2F2"/><path d="M367.942 114.846c-2.473 0-4.478-2.149-4.478-4.8s2.005-4.799 4.478-4.799 4.478 2.148 4.478 4.799c0 2.651-2.005 4.8-4.478 4.8z" fill="#E6E6E6"/><path d="M516.546 450.915l-7.507 5.249-22.395-28.645 11.077-7.749 18.825 31.145z" fill="#FFB6B6"/><path d="M521.901 459.153l-23.081 16.145-.189-.314c-1.55-2.563-2.089-5.683-1.5-8.674.589-2.991 2.259-5.607 4.641-7.274l.001-.001 2.136-6.39 9.946-2.061 2.015-1.41 6.031 9.979z" fill="#2F2E41"/><path d="M387.916 464.672l-8.953-.001-4.259-37.149 13.214.001-.002 37.149z" fill="#FFB6B6"/><path d="M388.231 474.719l-27.531-.001v-.374c0-3.058 1.129-5.99 3.139-8.152 2.009-2.161 4.735-3.376 7.577-3.376h.001l5.028-4.104 9.383 4.105h2.404l-.001 11.902zm92.356-239.283l-80.284 1.899-7.958 10.701s.688-3.773.075.371c-.612 4.144-16.1 86.766-13.173 89.537 2.928 2.771-5.551 21.903-6.174 23.07-.623 1.167-7.335 58.756 0 63.491l2.755 20.102h12.821s12.844-15.99 10.259-18.888c-2.584-2.899 4.808-12.537 5.091-17.706.283-5.168 2.982-28.61.89-32.369-2.091-3.759-4.918-17.864.387-23.333 5.306-5.468 30.049-72.668 30.049-72.668s7.19 78.781 7.173 84.967c-.022 8.044 4.889 4.063 4.889 11.125 0 1.427 15.99 38.099 26.736 49.562l22.224 18.39 10.256-8.275v-11.954s-9.505-22.179-12.821-25.746c-3.315-3.567-15.559-14.486-15.559-19.48 0-4.993-5.763-6.733-1.887-13.354 3.877-6.621 2.551-9.475 1.224-12.328-1.326-2.854 1.189-119.775 1.189-119.775l1.838 2.661z" fill="#2F2E41"/><path d="M465.386 72.323l-34.834-1.8-8.914 15.731s-26.035 2.812-22.312 13.346c3.723 10.534 9.47 82.765 4.206 91.798-2.777 4.766-7.479 20.718-11.301 34.724a19.213 19.213 0 0 0-.381 8.363 18.572 18.572 0 0 0 3.197 7.634c1.611 2.238 3.693 4.032 6.074 5.236a15.644 15.644 0 0 0 7.623 1.69c24.777-.879 61.573-2.962 65.926-7.644 6.631-7.135 12.6-12.842 8.621-14.982-3.979-2.14-9.67-33.182-9.67-33.182s26.419-89.525 19.523-92.163c-6.895-2.637-26.145-14.82-26.145-14.82l-1.613-13.93z" fill="#3F3D56"/><path d="M447.11 62.068c-13.398 0-24.26-11.685-24.26-26.099 0-14.413 10.862-26.098 24.26-26.098 13.398 0 24.26 11.685 24.26 26.098 0 14.414-10.862 26.099-24.26 26.099z" fill="#FFB6B6"/><path d="M572.987 475.717L303.439 476a.984.984 0 0 1-.716-.323 1.138 1.138 0 0 1-.297-.772c0-.289.107-.567.297-.772a.984.984 0 0 1 .716-.323l269.548-.282a.983.983 0 0 1 .717.322c.189.205.296.483.296.773 0 .289-.107.567-.296.772a.983.983 0 0 1-.717.322z" fill="#CACACA"/><path d="M466.491 245.411l6.829-22.115 12.288 2.434-7.994 23.105a8.348 8.348 0 0 1 .362 4.252 8.024 8.024 0 0 1-1.774 3.821 7.189 7.189 0 0 1-3.377 2.243 6.766 6.766 0 0 1-3.97-.006 7.194 7.194 0 0 1-3.372-2.254 8.038 8.038 0 0 1-1.763-3.826 8.344 8.344 0 0 1 .373-4.251 7.771 7.771 0 0 1 2.398-3.403z" fill="#FFB6B6"/><path d="M491.161 101.266l.324.146c3.013 1.351 5.674 3.472 7.753 6.18 2.079 2.707 3.514 5.918 4.179 9.356 1.742 8.968 3.456 21.939 2.101 34.085-2.393 21.451-3.988 30.89-7.179 37.754-3.19 6.865-3.988 4.29-3.19 9.439.798 5.148 4.786.858.798 7.722-3.989 6.865-6.381 5.149-4.786 8.581 1.595 3.432 3.988 3.432.797 7.722-3.19 4.29-3.19 6.007-3.988 7.723-.797 1.716-3.19 14.586-3.19 14.586s-12.762-4.29-19.94-2.574c0 0 6.381-12.012 4.785-14.587-1.595-2.574-3.988-3.432-1.595-6.006 2.393-2.574 6.381-1.716 2.393-4.29-3.988-2.574 3.191-29.174 3.191-29.174l17.547-86.663z" fill="#3F3D56"/><path d="M299.301 150.136l20.999-5.718 4.71 12.449-22.401 5.196a7.359 7.359 0 0 1-3.136 2.618 6.78 6.78 0 0 1-3.948.449 7.054 7.054 0 0 1-3.576-1.854 7.897 7.897 0 0 1-2.133-3.601 8.374 8.374 0 0 1-.05-4.27 7.935 7.935 0 0 1 2.047-3.659 7.085 7.085 0 0 1 3.531-1.951 6.77 6.77 0 0 1 3.957.341z" fill="#FFB6B6"/><path d="M425.491 94.88l.061.37a23.17 23.17 0 0 1-.666 10.357c-1.001 3.343-2.744 6.372-5.078 8.827-6.087 6.408-15.324 14.946-25.567 20.258-18.091 9.382-26.343 13.019-33.438 13.823-7.094.805-5.508-1.305-9.111 2.191-3.603 3.495 1.905 4.8-5.619 4.881-7.524.081-7.469-3.012-9.298.282-1.829 3.295-.541 5.464-5.619 4.882-5.079-.582-6.423.342-8.197.543-1.773.201-13.143 4.963-13.143 4.963s-3.512-13.879-8.722-19.462c0 0 12.846-.684 14.003-3.516 1.157-2.833.541-5.464 3.846-4.681 3.304.783 4.78 4.86 4.649-.141-.132-5.001 85.923-50.044 85.923-50.044l15.976 6.466z" fill="#3F3D56"/><path d="M418.063 31.404c2.615.873 5.137 1.388 6.838-.92 1.7-2.308 1.256-4.947 3.786-6.06a8.367 8.367 0 0 1 6.462.322c.367.148.726.313 1.077.479a8.46 8.46 0 0 1 .607-.525c1.608-1.23 3.593-1.75 5.547-1.452-1.428.742-2.603 1.948-3.359 3.448.701.377 1.41.754 2.128 1.076a19.659 19.659 0 0 0 9.531 1.616 19.96 19.96 0 0 0 9.196-3.143c-2.803 7.945-.624 10.777 3.488 18.032l.162.423c-.41-1.904 4.966-4.101 4.966-1.343a35.113 35.113 0 0 1-1.709 8.276c5.273-8.543 8.385-18.538 6.342-28.128-.436-2.014-.633-4.174-1.821-5.811-1.188-1.628-3.376-2.584-5.103-1.665-.214-3.118-1.209-6.116-2.88-8.674-1.672-2.559-3.956-4.582-6.611-5.855a15.072 15.072 0 0 0-8.467-1.377c-2.886.373-5.624 1.58-7.923 3.493-2.137 1.775-3.821 4.101-5.727 6.17-1.906 2.069-4.162 3.954-6.829 4.469-1.692.322-3.599.129-4.949 1.278-1.564 1.333-1.581 3.678-1.573 5.93a7.297 7.297 0 0 1 4.334 1.279 7.205 7.205 0 0 0-4.376 1.655.434.434 0 0 0-.069.055c-.461 3.788-.273 4.588-3.068 6.952z" fill="#2F2E41"/><path d="M306.367 48.247c-2.473 0-4.478-2.149-4.478-4.8 0-2.65 2.005-4.799 4.478-4.799s4.478 2.149 4.478 4.8c0 2.65-2.005 4.8-4.478 4.8zm-48.17 5.642c-2.473 0-4.478-2.15-4.478-4.8s2.005-4.8 4.478-4.8 4.478 2.15 4.478 4.8-2.005 4.8-4.478 4.8zm-35.296 35.718c-2.473 0-4.478-2.149-4.478-4.8 0-2.65 2.005-4.799 4.478-4.799 2.474 0 4.479 2.149 4.479 4.8 0 2.65-2.005 4.8-4.479 4.8zm16.559 96.676c-2.474 0-4.478-2.148-4.478-4.799 0-2.651 2.004-4.8 4.478-4.8 2.473 0 4.478 2.149 4.478 4.8s-2.005 4.799-4.478 4.799zm43.397 22.161c-2.473 0-4.478-2.149-4.478-4.8 0-2.65 2.005-4.799 4.478-4.799s4.478 2.149 4.478 4.799c0 2.651-2.005 4.8-4.478 4.8zm45.341-9c-2.473 0-4.478-2.149-4.478-4.8 0-2.65 2.005-4.799 4.478-4.799s4.478 2.149 4.478 4.799c0 2.651-2.005 4.8-4.478 4.8zm31.317-35.719c-2.473 0-4.478-2.149-4.478-4.799 0-2.651 2.005-4.8 4.478-4.8s4.478 2.149 4.478 4.8c0 2.65-2.005 4.799-4.478 4.799zM348.35 71.047c-2.473 0-4.478-2.15-4.478-4.8s2.005-4.8 4.478-4.8 4.478 2.15 4.478 4.8-2.005 4.8-4.478 4.8zm-13.435 44.999c-2.473 0-4.478-2.149-4.478-4.8s2.005-4.799 4.478-4.799c2.474 0 4.479 2.148 4.479 4.799 0 2.651-2.005 4.8-4.479 4.8zm-71.09-19.8c-2.473 0-4.478-2.149-4.478-4.8 0-2.65 2.005-4.799 4.478-4.799s4.478 2.149 4.478 4.8c0 2.65-2.005 4.8-4.478 4.8zm-10.636 43.799c-2.473 0-4.478-2.149-4.478-4.799 0-2.651 2.005-4.8 4.478-4.8s4.478 2.149 4.478 4.8c0 2.65-2.005 4.799-4.478 4.799z" fill="#E6E6E6"/><path d="M290.461 72.162c-20.884-6.98-43.24.57-64.237-5.875-4.83-1.421-9.395-3.728-13.496-6.818a86.184 86.184 0 0 1-9.822-9.404c-6.317-6.72-13.176-13.778-22.666-13.7-12.497.102-22.092 10.089-30.421 18.906-1.178 1.247-2.992-.703-1.814-1.95 7.654-8.103 15.924-16.65 26.818-19.07a23.13 23.13 0 0 1 14.631 1.308c4.026 1.968 7.705 4.674 10.871 7.997 3.355 3.31 6.449 6.914 9.85 10.171 3.55 3.475 7.64 6.252 12.083 8.205 9.626 4.123 20.185 4.62 30.423 4.5 12.852-.15 26.01-1.092 38.461 3.07 1.571.526.901 3.19-.681 2.66z" fill="#3F3D56"/><path d="M145.239 36.68l-6.42 12.175-3.106 5.89c-.552 1.047-1.119 2.087-1.657 3.142-.33.649-1.051 1.818-.362 2.432a3.136 3.136 0 0 0 1.951.328c1.132.003 2.264-.025 3.395-.037l6.367-.07 13.157-.143c.333.013.647.163.878.42.231.258.361.602.361.96 0 .357-.13.701-.361.958a1.242 1.242 0 0 1-.878.42c-7.638.084-15.281.258-22.919.25a5.2 5.2 0 0 1-3.748-1.103 3.943 3.943 0 0 1-1.003-2.093 4.095 4.095 0 0 1 .323-2.329 42.972 42.972 0 0 1 2.593-5.116l2.795-5.301 6.42-12.174a1.29 1.29 0 0 1 .78-.605c.324-.084.665-.03.952.15.287.18.498.474.588.819.09.344.052.713-.106 1.028z" fill="#3F3D56"/><path d="M301.889 91.447c-7.11 0-12.875-6.178-12.875-13.8 0-7.621 5.765-13.8 12.875-13.8 7.111 0 12.875 6.179 12.875 13.8s-5.764 13.8-12.875 13.8zM60.39 66.51h59.003c.323.002.644-.065.943-.198.3-.132.572-.327.801-.572.229-.246.411-.538.535-.86a2.822 2.822 0 0 0 0-2.028 2.667 2.667 0 0 0-.535-.86 2.445 2.445 0 0 0-.801-.572 2.3 2.3 0 0 0-.943-.198H60.389a2.309 2.309 0 0 0-.943.198c-.3.132-.572.327-.801.573-.23.245-.411.537-.535.859a2.82 2.82 0 0 0 0 2.029c.124.321.306.613.535.859.23.245.501.44.8.572.3.133.62.2.944.199z" fill="#0181FF"/><path d="M60.39 109.11h59.003a2.3 2.3 0 0 0 .943-.199c.3-.132.572-.326.801-.572.229-.246.411-.538.535-.859a2.828 2.828 0 0 0 0-2.029 2.664 2.664 0 0 0-.535-.859 2.452 2.452 0 0 0-.801-.573 2.3 2.3 0 0 0-.943-.198H60.389a2.302 2.302 0 0 0-.943.198c-.3.133-.572.327-.801.573-.23.246-.411.537-.535.859a2.816 2.816 0 0 0 0 2.029c.124.321.306.613.535.859.23.246.501.44.8.572.3.133.62.2.944.199zM2.468 87.81h116.925a2.3 2.3 0 0 0 .943-.198c.3-.132.572-.327.801-.573.229-.245.411-.537.535-.859a2.822 2.822 0 0 0 0-2.029 2.667 2.667 0 0 0-.535-.859 2.445 2.445 0 0 0-.801-.572 2.3 2.3 0 0 0-.943-.199H2.468a2.309 2.309 0 0 0-.944.199c-.3.132-.571.327-.8.572-.23.246-.412.538-.536.86a2.82 2.82 0 0 0 0 2.028c.124.322.306.614.535.86.23.245.502.44.801.572.3.132.62.2.944.198z" fill="#E6E6E6"/><path d="M87.258 197.308h59.004c.323.001.644-.066.943-.198.3-.133.572-.327.801-.573.229-.246.411-.538.535-.859a2.823 2.823 0 0 0 0-2.029 2.675 2.675 0 0 0-.535-.859 2.452 2.452 0 0 0-.801-.573 2.316 2.316 0 0 0-.943-.198H87.258a2.318 2.318 0 0 0-.943.198c-.3.133-.572.327-.801.573-.23.246-.411.538-.535.859a2.822 2.822 0 0 0 0 2.029c.124.321.306.613.535.859.23.246.501.44.8.573.3.132.62.199.944.198z" fill="#0181FF"/><path d="M87.258 239.907h59.004a2.3 2.3 0 0 0 .943-.198c.3-.133.572-.327.801-.573.229-.246.411-.538.535-.859a2.823 2.823 0 0 0 0-2.029 2.675 2.675 0 0 0-.535-.859 2.434 2.434 0 0 0-.801-.572 2.3 2.3 0 0 0-.943-.199H87.258a2.303 2.303 0 0 0-.943.199c-.3.132-.572.326-.801.572-.23.246-.411.538-.535.859a2.826 2.826 0 0 0 0 2.029c.124.321.306.613.535.859.23.246.501.44.8.573.3.132.62.2.944.198zm-57.921-21.299h116.925a2.3 2.3 0 0 0 .943-.199c.3-.132.572-.327.801-.572.229-.246.411-.538.535-.86a2.819 2.819 0 0 0 0-2.028 2.653 2.653 0 0 0-.535-.859 2.437 2.437 0 0 0-.801-.573 2.3 2.3 0 0 0-.943-.198H29.337a2.302 2.302 0 0 0-.944.198c-.3.132-.571.327-.8.573a2.64 2.64 0 0 0-.536.859 2.816 2.816 0 0 0 0 2.028c.124.322.306.614.535.86.23.245.502.44.801.572.3.133.62.2.944.199z" fill="#E6E6E6"/><path d="M349.23 243.507h59.004a2.3 2.3 0 0 0 .943-.198c.3-.133.572-.327.801-.573.229-.246.411-.538.535-.859a2.823 2.823 0 0 0 0-2.029 2.675 2.675 0 0 0-.535-.859 2.434 2.434 0 0 0-.801-.572 2.3 2.3 0 0 0-.943-.199H349.23a2.3 2.3 0 0 0-.943.199c-.3.132-.572.326-.801.572a2.675 2.675 0 0 0-.535.859 2.807 2.807 0 0 0-.188 1.015c0 .348.063.692.188 1.014.124.321.306.613.535.859.229.246.501.44.801.573.299.132.62.2.943.198z" fill="#0181FF"/><path d="M349.23 286.106h59.004a2.3 2.3 0 0 0 .943-.198c.3-.132.572-.327.801-.573.229-.245.411-.537.535-.859a2.819 2.819 0 0 0 0-2.029 2.675 2.675 0 0 0-.535-.859 2.449 2.449 0 0 0-.801-.572 2.3 2.3 0 0 0-.943-.199H349.23a2.3 2.3 0 0 0-.943.199c-.3.132-.572.327-.801.572a2.675 2.675 0 0 0-.535.859 2.807 2.807 0 0 0-.188 1.015c0 .348.063.693.188 1.014.124.322.306.614.535.859.229.246.501.441.801.573.299.132.62.2.943.198zm-57.921-21.299h116.925a2.3 2.3 0 0 0 .943-.199c.3-.132.572-.327.801-.572.229-.246.411-.538.535-.86a2.819 2.819 0 0 0 0-2.028 2.653 2.653 0 0 0-.535-.859 2.437 2.437 0 0 0-.801-.573 2.3 2.3 0 0 0-.943-.198H291.309a2.301 2.301 0 0 0-.944.198 2.458 2.458 0 0 0-.801.573 2.653 2.653 0 0 0-.535.859 2.819 2.819 0 0 0 0 2.028c.124.322.306.614.535.86.23.245.502.44.801.572.299.133.62.2.944.199z" fill="#E6E6E6"/><path d="M224.089 136.709l-44.118 35.806-12.556 10.191c-1.318 1.069-2.597-1.325-1.294-2.382l44.117-35.806 12.557-10.191c1.317-1.07 2.596 1.325 1.294 2.382z" fill="#3F3D56"/><path d="M186.548 184.891c-9.622 4.966-20.082 7.775-30.745 8.255a1.224 1.224 0 0 1-.565-.149 1.318 1.318 0 0 1-.448-.4 1.485 1.485 0 0 1-.223-1.197l6.832-29.501c.399-1.722 2.873-.993 2.473.733l-6.832 29.501-1.237-1.746c10.212-.454 20.231-3.134 29.451-7.878 1.481-.764 2.783 1.614 1.294 2.382z" fill="#3F3D56"/><path d="M221.842 150.246c-7.11 0-12.875-6.179-12.875-13.8s5.765-13.8 12.875-13.8c7.111 0 12.875 6.179 12.875 13.8s-5.764 13.8-12.875 13.8z" fill="#0181FF"/><path d="M287.32 161.611l31.701 48.773 8.935 13.747c.948 1.458-1.274 2.838-2.214 1.392l-31.701-48.773-8.935-13.747c-.948-1.458 1.274-2.838 2.214-1.392z" fill="#3F3D56"/><path d="M330.751 203.725c4.255 10.49 6.468 21.806 6.503 33.251-.002.211-.05.419-.138.608a1.373 1.373 0 0 1-.372.482 1.248 1.248 0 0 1-.531.258 1.207 1.207 0 0 1-.582-.018L308.4 229.82a1.304 1.304 0 0 1-.743-.657 1.47 1.47 0 0 1-.111-1.027c.089-.345.298-.64.585-.822.286-.182.627-.237.95-.154l27.232 8.486-1.623 1.33c-.013-10.96-2.107-21.801-6.153-31.858-.652-1.612 1.557-3.018 2.214-1.393z" fill="#3F3D56"/><path d="M285.656 176.045c-7.111 0-12.875-6.178-12.875-13.799 0-7.622 5.764-13.8 12.875-13.8 7.11 0 12.875 6.178 12.875 13.8 0 7.621-5.765 13.799-12.875 13.799z" fill="#0181FF"/></svg>