<svg width="32" height="32" fill="none" xmlns="http://www.w3.org/2000/svg"><path d="M16 0C7.164 0 0 7.164 0 16s7.164 16 16 16 16-7.164 16-16S24.836 0 16 0Zm8.449 23.346-1.281 1.281c-.229.229-.898.371-.92.371a15.12 15.12 0 0 1-10.822-4.424A15.138 15.138 0 0 1 7 9.714c0-.001.147-.652.375-.878l1.281-1.281c.469-.471 1.37-.684 2-.473l.27.09c.629.21 1.289.906 1.463 1.547l.644 2.365c.174.643-.06 1.557-.53 2.026l-.854.855a9.086 9.086 0 0 0 6.388 6.391l.855-.856c.471-.47 1.385-.705 2.026-.531l2.365.646c.641.176 1.336.833 1.547 1.461l.09.274c.209.629-.002 1.53-.471 1.996Z" fill="#fff"/></svg>