<svg width="96" height="158" viewBox="0 0 96 158" fill="none" xmlns="http://www.w3.org/2000/svg"><g clip-path="url(#a)"><path d="M19.62 118.326c2.467.49 5.305.245 7.526-1.102 2.222-1.347 3.826-3.796 3.456-6.367-.37-2.204-1.975-4.041-2.962-6.122-.987-2.082-1.11-5.02.864-6.123 1.85-.98 4.319.49 5.306 2.327.987 1.836 1.234 4.163 2.22 6.122 1.111 2.327 3.21 4.041 5.677 4.776 2.468.734 5.182.367 7.404-.858 2.344-1.346 4.072-3.795 5.059-6.367 1.11-2.571 1.604-5.265 2.344-7.837.617-2.081 1.357-4.285 3.208-5.51 1.851-1.224 4.936-.612 5.306 1.592.247 1.225-.493 2.572-1.234 3.551-1.85 2.939-3.825 5.755-5.676 8.694-.864 1.347-1.85 2.816-1.85 4.408-.124 2.204 1.357 4.163 3.208 5.51 4.318 3.306 10.735 3.919 15.547 1.347.864-.367 1.604-.979 2.591-.979.864-.123 1.975.367 2.098 1.347.123.367 0 .857-.247 1.224-.987 3.184-1.974 6.367-3.085 9.551-.493 1.347-.863 2.816-1.85 3.918-.864.98-2.098 1.592-3.332 2.205-3.085 1.591-6.293 3.183-9.625 3.795-5.923 1.225-11.969-.367-17.645-2.326-6.91-2.449-13.45-5.755-20.113-9.061-3.208-1.592-6.663-3.306-9.255-5.878-.987-.979-2.097-2.449-.123-3.184 1.11-.367 3.825 1.103 5.182 1.347z" fill="#236FBD"/><path d="M2.344 114.286c-.863-.368-1.85-.858-2.22-1.715-.618-1.469 1.11-3.061 2.714-3.061 1.604 0 3.085 1.102 4.319 2.082l11.846 9.183c1.357.98 3.208 2.082 4.565.98 1.234-1.102.494-3.061-.493-4.531a41.27 41.27 0 0 0-11.353-11.265c-2.097-1.347-4.318-2.694-5.429-4.776-1.11-2.204-.617-5.387 1.728-6.122 1.85-.612 3.825.735 5.305 2.204 7.404 7.102 11.6 16.653 17.029 25.347 1.11 1.714 2.714 3.674 4.689 3.184 1.357-.245 2.22-1.715 2.468-3.061.123-1.347-.247-2.694-.617-4.041-3.949-12.735-8.515-25.96-18.263-34.898-1.974-1.837-4.442-4.041-3.825-6.735.617-3.061 5.183-3.796 7.774-2.082 2.591 1.715 3.825 5.02 4.936 7.96 3.578 9.55 8.144 18.857 13.45 27.551 3.084 4.898 6.91 10.04 12.462 11.632 4.32 1.225 9.008 0 12.833-2.204 3.825-2.204 5.43-6.49 7.774-10.163a1579.626 1579.626 0 0 0 12.093-18.49c.617-.98 1.233-1.837 2.22-2.449.988-.612 2.345-.734 3.085 0 1.481 1.347.37 3.796-.987 5.266-4.072 4.653-7.28 9.306-11.352 13.959-4.195 4.653-6.91 11.143-8.76 17.02-.618 1.714-2.345 2.939-.988 4.041 1.728 1.224 4.195-.367 5.8-1.837 3.701-3.551 7.403-6.979 11.105-10.53 1.85-1.715 3.702-3.552 5.553-5.266.74-.734 1.727-2.204 2.714-2.449 4.69-1.102-2.961 7.47-3.455 8.204-2.22 2.694-4.318 5.266-6.54 7.959 0 0 5.677-1.714 6.17-1.836 2.962-.612 4.689 1.837 3.825 4.775-1.357 4.776-8.637 4.041-12.463 5.021-6.663 1.836-11.352 8.081-14.683 14.081-1.11 1.96-1.975 4.286-3.825 5.633-1.975 1.469-4.69 1.714-7.157 1.837-6.047.122-12.34-.123-18.262-1.47-3.702-.857-4.69-3.061-5.923-6.489-3.332-8.939-8.885-17.021-16.165-23.266-3.949-3.796-8.637-6.857-13.697-9.183z" fill="#fff"/><path d="M78.478 128.122c1.11-.734 2.221-1.347 3.455-1.836a21.128 21.128 0 0 1 3.702-1.102c1.234-.245 2.591-.368 3.948-.245 1.358.122 2.715.367 3.826 1.102-1.358 0-2.468.122-3.702.245-1.234.122-2.468.367-3.702.612-2.468.49-4.936.979-7.527 1.224zM18.262 77.428c.74-.612 1.851-.857 2.838-.612.987.245 1.975.735 2.591 1.47a7.19 7.19 0 0 1 1.605 2.326c.37.857.617 1.714.617 2.694-.37-.367-.617-.735-.864-.98-.247-.367-.617-.612-.864-.98-.493-.612-1.11-1.224-1.604-1.836-1.234-1.102-2.468-1.96-4.319-2.082z" fill="#fff"/><path d="M38.745 150.041c-.74-1.96-1.357-4.041-2.097-6l-.987-2.939c-.124-.49-.37-.98-.494-1.47-.123-.489-.247-1.224.123-1.836.124-.368.494-.613.864-.735a1.73 1.73 0 0 1 1.11 0c.741.122 1.235.735 1.481 1.224.617.98.988 1.96 1.481 2.939l2.715 5.633c.247.367.493.735.74.98.247.122.37.122.494 0 .37-.368.617-1.592.864-2.572l1.604-6.122c.123-.49.37-1.225.863-1.715.494-.612 1.358-.979 2.221-.734.494.122.864.367 1.111.734.247.368.37.735.494.98.123.612.123 1.102.246 1.714l.864 6.245-.987-.735c.494-.122.987-.489 1.357-1.102.37-.612.74-1.347 1.234-2.081a2.902 2.902 0 0 1 1.11-.98c.494-.245.988-.49 1.605-.49.493 0 1.234.123 1.727.613.494.489.617 1.224.617 1.714-.123 1.102-.74 1.959-1.233 2.449-.247.367-.37.612-.37.857s0 .49.123.612c.123.245.246.245.246.245.124 0 .37-.245.617-.49l1.605-1.836 1.604-1.837c.617-.612.987-1.225 1.727-1.837.37-.245.74-.49 1.234-.612.494-.123 1.11 0 1.48.245.494.245.865.735.865 1.347s-.37.979-.494 1.347c-1.728 2.694-3.455 5.51-5.306 8.204a293.947 293.947 0 0 1 4.689-8.572c1.11-1.347-.864-2.204-1.85-1.102-.494.49-.988 1.102-1.605 1.837L60.833 146l-1.604 1.837c-.247.244-.617.734-1.358.979-.37.123-.74 0-1.11-.122-.37-.123-.494-.368-.74-.613-.37-.489-.494-1.102-.37-1.714.123-.49.37-.979.616-1.347.494-.735.864-1.347.864-1.837.123-.857-1.357-.979-2.098.245-.37.49-.74 1.225-1.233 2.082-.494.735-1.234 1.592-2.468 1.837-.494.122-.864-.245-.988-.613l-.37-6.612c-.123-.49-.123-1.102-.246-1.469-.124-.368-.247-.49-.37-.49-.124 0-.494.122-.618.245-.246.245-.37.612-.493 1.102l-1.728 6.122-.37 1.592c-.123.49-.37 1.225-.987 1.715-.37.244-.74.489-1.234.489s-.864-.122-1.234-.367c-.617-.49-.987-.98-1.234-1.469l-2.591-5.878c-.37-.98-.864-1.959-1.234-2.816-.247-.368-.494-.735-.864-.857-.37-.123-.74 0-.864.244-.37.613.124 1.715.37 2.694l.864 3.062c.617 1.959 1.11 4.04 1.605 6z" fill="#BFDFFF"/><path d="M35.29 150.653c-1.357 0-2.714.122-4.072.122h-1.974c-.617 0-1.234.245-1.357.613-.123.367.123.857.494 1.224.37.367.987.49 1.727.612 1.234.368 2.591.613 3.949.98 5.182 1.102 10.488 1.714 15.917 1.959 5.306.245 10.736.245 16.041.123 1.358 0 2.715 0 3.949-.123.617 0 1.234-.122 1.974-.367.617-.123 1.234-.368 1.604-.735.864-.735.988-2.204.247-3.184-.37-.489-.987-.734-1.604-.857l-1.974-.612 1.974.367c.617.123 1.357.368 1.974.857 1.11.98 1.234 2.939.124 4.041a2.7 2.7 0 0 1-.987.613c-.37.122-.617.244-.988.367-.617.245-1.357.367-2.097.49-1.358.245-2.715.245-4.072.367-5.43.367-10.859.612-16.288.367-5.43-.245-10.859-.979-16.165-2.326a48.506 48.506 0 0 1-3.948-1.225c-.617-.245-1.357-.367-1.974-.979-.617-.49-1.111-1.47-.617-2.327.246-.367.617-.734.987-.857.37-.122.74-.122 1.11-.122l1.974.122c1.481.245 2.839.367 4.073.49z" fill="#fff"/></g><g clip-path="url(#b)" fill="#fff"><path d="M47.425 67.206c1.808-.338 3.78 1.182 4.274 3.04.493 1.857-.33 4.052-1.644 5.234-6.247 5.91-8.384-7.26-2.63-8.274zm-3.124-23.809c.165-2.195.658-4.56 2.63-5.235 1.973-.675 4.11.845 4.603 2.87.658 2.027.165 4.222-.493 6.08-.493 1.688-2.466 9.456-4.931 8.78-2.302-.675-1.973-10.638-1.809-12.495zm-1.644-34.11c0-1.857.165-3.883.987-5.572S45.945.338 47.754.169c2.465-.338 4.767 1.52 5.589 3.715.986 2.364.821 4.897.493 7.26-.658 4.391-1.48 17.9-7.726 17.9-6.083 0-3.617-15.535-3.453-19.757z"/></g><defs><clipPath id="a"><path fill="#fff" transform="translate(0 74)" d="M0 0h96v84H0z"/></clipPath><clipPath id="b"><path fill="#fff" transform="translate(42)" d="M0 0h12v77H0z"/></clipPath></defs></svg>