<svg width="185" height="514" viewBox="0 0 185 514" fill="none" xmlns="http://www.w3.org/2000/svg"><path d="M101.805 427.456c-1.307.925-3.549.74-4.67-.555-1.12-1.294-1.493-3.144-.746-4.809.747-1.48 2.241-2.59 3.922-2.96 1.868-.37 4.109.37 5.416 1.85 1.308 1.48-2.428 5.179-3.922 6.474zm-4.435-43.394c1.407-.944 2.991-1.133 4.575-.944.703 0 1.231.189 1.935.378 7.215 2.453 3.871 7.737-1.759 7.548-3.52 0-10.91-3.019-4.752-6.982zM91 334.279c0-4.213 2.314-8.426 6.052-10.532 3.738-2.106 8.543-2.282 12.459-.175 2.67 1.404 4.806 4.037 4.45 7.021-.178 1.931-1.602 3.686-3.204 5.09s-3.204 2.633-4.628 4.213c-2.135 2.808-3.559 8.601-8.187 6.846-3.916-1.405-6.942-8.601-6.942-12.463zm-14.266-87.508c-10.611-5.535-18.196-16.866-18.614-28.995-.417-12.129 5.425-24.395 15.85-31.434 7.029-4.841 16.453-6.73 23.504-1.918 4.63 2.983 7.189 8.856 8.631 14.713 1.443 5.857 2.443 11.484 4.56 17.126 4.281 9.039 17.008 20.217 6.536 29.5-8.657 7.962-30.74 6.083-40.467 1.008zM54.536 42.155C70.232 27.6 93.86 21.603 114.524 28.147c20.663 6.544 37.794 23.707 43.37 45.463 3.922 14.724 1.434 31.717-10.905 40.71-7.804 6.012-19.226 6.811-29.95 5.739s-20.794-2.75-31.563-2.557c-17.787 1.804-44.25 16.551-53.577-6.625-8.193-19.33 8.248-55.381 22.637-68.722z" fill="#fff"/><path d="M73.095 446.276c4.026 3.538 9.226 5.728 14.593 5.896 3.355.169 6.877-.505 9.058-3.032 2.851-3.201 2.516-8.423 5.367-11.624 2.013-2.19 5.368-3.033 8.219-1.853 2.684 1.179 4.529 4.211 4.361 7.244-.168 2.021-1.174 4.043-.335 5.896.838 2.022 3.354 2.864 5.535 2.527 2.18-.337 4.026-1.853 5.703-3.201 4.025-2.864 8.219-5.559 12.748-7.918 1.677-.842 3.522-1.684 5.535-1.684 1.845 0 4.025 1.01 4.529 2.864.503 1.516-.168 3.2.335 4.717.671 2.021 3.187 2.864 5.368 2.695 2.18-.168 4.025-1.348 6.206-1.853 2.012-.674 4.528-.674 6.038.674 2.181 1.853 1.677 5.728-.335 7.749-2.013 2.022-4.865 3.033-7.716 3.707-15.767 4.211-31.702 7.918-47.972 9.265-16.27 1.348-32.876.337-48.475-4.548-2.516-.843-5.2-1.685-7.38-3.37-1.174-.842-4.697-4.043-3.522-5.896.838-1.348 5.87-.674 7.38-1.011 5.535-.842 10.735-3.369 14.76-7.244z" fill="#236FBD"/><path d="M33.51 467.166c-2.516-.168-5.535-.337-6.373-2.695-.84-2.191 1.174-4.381 3.522-5.054 2.18-.506 4.529.168 6.877.336 2.348.337 4.864 0 6.206-1.853 1.677-2.19.503-5.896-1.845-7.581-2.348-1.684-5.367-2.021-8.219-2.358-2.851-.337-5.87-.674-8.051-2.359-2.18-1.684-3.355-5.391-1.342-7.581 1.174-1.348 3.187-1.685 5.032-1.685 6.374-.168 12.58 2.696 16.941 7.413 2.348 2.696 4.193 5.896 6.542 8.592 2.348 2.695 5.535 5.054 9.057 5.054 3.523 0 7.213-3.201 6.71-6.739-.504-3.369-4.194-5.222-7.38-6.402-3.188-1.347-6.71-3.537-6.71-6.907 0-2.864 2.516-5.054 5.2-5.559 2.684-.506 5.535.168 8.219 1.011 4.193 1.347 8.722 3.032 11.238 6.738 2.516 3.707 2.683 8.761 5.032 12.635 2.516 4.549 7.716 7.076 12.915 7.581 5.2.506 10.232-.673 15.264-2.19 14.593-4.38 28.347-11.455 40.256-20.721 2.18-1.685 4.696-3.706 7.38-3.875 2.852-.168 5.871 2.359 5.032 5.223-.671 2.358-3.522 3.032-5.703 3.706-6.038 1.853-11.573 5.391-15.599 10.445-.671.842-1.51 2.19-1.006 3.201.503 1.011 2.012 1.179 3.187.674 1.174-.506 2.012-1.348 3.019-1.854 4.696-2.021 9.225 3.538 14.257 4.212 3.858.506 7.38-2.021 11.071-3.538 3.69-1.516 8.889-1.516 10.399 2.022 1.174 2.695-.671 6.065-3.187 7.581-5.367 3.032-11.909.337-18.115.168-8.89-.336-17.78 5.223-21.135 13.478-1.509 3.538-2.012 7.412-4.528 10.445-3.02 3.706-7.884 4.885-12.58 5.728-12.58 2.695-25.16 5.222-37.908 5.054-10.064-.169-21.302-2.19-29.857-7.75-3.187-2.021-3.522-4.211-4.193-7.749-.838-4.212-3.02-7.75-5.87-10.782-3.858-3.201-8.723-5.728-13.755-6.065z" fill="#fff"/><path d="M170.716 459.923c.671-1.011 1.51-1.685 2.516-2.191 1.006-.505 1.845-1.011 3.019-1.348a7.882 7.882 0 0 1 3.523-.337 8.176 8.176 0 0 1 1.845.674c.335.169.503.506.671.674.167.337.167.674.167.843-1.006-.674-1.845-.506-2.683-.337-.839.168-1.845.506-2.852.843-2.013.337-3.858 1.011-6.206 1.179zM25.962 440.548a10.402 10.402 0 0 1 4.361-1.516c1.51-.169 3.187-.169 4.697.337 1.51.337 3.02 1.011 4.193 2.021 1.342.843 2.349 2.191 3.02 3.538-1.342-.674-2.684-1.347-4.026-1.853-1.342-.505-2.516-1.011-3.858-1.348-2.516-.842-5.367-1.01-8.387-1.179zm34.888-5.391c1.343-.168 2.685 0 3.859.337 1.342.337 2.516.674 3.69 1.348 1.174.505 2.348 1.348 3.355 2.19 1.006.842 2.012 2.022 2.18 3.369-1.006-.842-2.18-1.347-3.187-1.853l-3.355-1.516c-2.18-1.179-4.36-2.19-6.541-3.875z" fill="#BFDFFF"/><path d="M52.129 485.192c-3.187.674-6.039 2.19-8.051 4.38-.504.506-.84 1.18-1.175 1.685-.167.505-.167 1.011 0 1.348.504.842 1.845 1.516 3.355 2.021l4.529 1.517 2.348.673c.839.169 1.845.674 2.516 1.348.336.337.671 1.011.839 1.348.167.505.167.842.335 1.179.168.674.503 1.179 1.174 1.516 1.174.843 2.852.843 4.53.843-1.51.505-3.188.842-5.033.168-.839-.337-1.677-1.011-2.013-2.021-.335-.843-.503-1.517-.838-1.854-.839-.673-2.516-.842-4.194-1.179a21.878 21.878 0 0 1-4.696-1.516 15.35 15.35 0 0 1-2.348-1.179c-.84-.506-1.678-1.18-2.181-2.19-.503-1.011-.503-2.359 0-3.201.503-1.011 1.006-1.685 1.677-2.19 2.349-1.854 5.871-3.033 9.226-2.696zm20.631 23.08c10.064 1.685 20.128 2.864 30.192 3.201 2.516 0 5.032 0 7.38-.505 1.174-.169 2.348-.674 3.355-1.18 1.006-.505 2.18-1.179 3.354-1.684 2.349-1.348 4.865-2.022 7.548-2.359 2.516-.337 5.2-.337 7.716-.337-5.032.843-10.064 1.685-14.257 4.38-1.007.674-2.181 1.348-3.355 2.022-1.174.674-2.516 1.179-3.858 1.516-2.683.674-5.367.674-7.883.674-10.4-.505-20.631-2.19-30.192-5.728zm64.577-7.076c2.181-.168 4.193-.673 6.039-1.516 1.006-.505 1.845-1.011 2.683-1.516.839-.505 1.678-1.348 1.678-1.853 0-.337-.168-.506-.168-.506s-.168 0-.503-.168c-.168-.169-.671-.169-1.007-.674-.503-.337-.671-1.179-.503-1.853.168-.674.503-.842.839-1.179.671-.506 1.342-.674 1.845-.843l6.038-2.021c1.007-.337 2.181-.674 3.019-1.011l1.007-.505c.168-.169.335-.506.335-.674 0-.169 0-.337-.335-.506-.168-.168-.671-.337-1.174-.505-.839-.169-2.013-.337-3.02-.506-4.193-.673-8.386-1.179-12.747-1.684 4.361-.506 8.722-.674 12.915-.169 1.174.169 2.181.169 3.355.337a8.176 8.176 0 0 1 1.845.674c.671.337 1.174 1.179 1.342 2.19 0 1.853-1.51 3.033-2.684 3.538-1.174.505-2.013.674-3.187 1.011l-6.206 1.853c-.503.168-1.006.337-1.174.505-.168 0-.168.169-.168 0v-.337l.336.169c.167.168.671.168 1.006.505.671.674.839 1.685.671 2.359-.168.842-.671 1.348-1.174 1.853-.503.505-1.007.674-1.51 1.011-1.006.505-2.013 1.011-3.019 1.348-2.013.842-4.361 1.01-6.374.673z" fill="#fff"/><path d="M73.095 490.92c-1.51-1.011-2.851-2.022-4.025-3.201-1.174-1.179-2.516-2.358-3.355-4.043-.839-1.516-1.342-3.706-.168-5.391.504-.842 1.51-1.516 2.516-1.685 1.007-.168 2.013 0 2.852.337 1.677.674 3.187 1.853 4.529 2.696l4.193 2.864a149.307 149.307 0 0 1 8.387 5.896l-1.678 1.011c-.335-1.853-.503-4.043.671-6.065.503-1.011 1.51-1.853 2.684-2.19 1.006-.337 2.348-.506 3.522.168s1.678 1.854 2.18 2.696c.336.842.672 1.685 1.007 1.853.336.337.671.337 1.342.168.503-.168 1.174-.842 1.678-1.347 1.006-1.18 1.845-3.033 3.186-4.38 1.342-1.517 3.523-2.696 6.039-2.191 1.174.337 2.18 1.18 2.851 2.191.336.505.503 1.179.503 1.853 0 .674-.335 1.347-.67 1.853a6.469 6.469 0 0 1-.839 1.011c-.168.168-.168.505-.168.505 0 .169 0 0-.168 0 0 0 .168 0 .504-.168.503-.337 1.174-1.18 2.012-1.685.671-.674 1.342-1.179 2.181-1.685a35.387 35.387 0 0 1 4.529-3.032 54.168 54.168 0 0 1 10.064-4.549c.838-.337 1.677-.674 2.683-.674h1.51c.503.169 1.174.506 1.51 1.011.335.506.503 1.179.335 1.685 0 .505-.335 1.011-.503 1.516-.503.842-1.174 1.516-1.677 2.19-2.516 2.696-5.2 5.223-8.219 7.244 2.851-2.358 5.367-4.885 7.548-7.749.503-.674 1.174-1.348 1.509-2.19.336-.674.503-1.517 0-2.022-.335-.505-1.174-.674-1.845-.505-.838.168-1.677.505-2.516.842-3.354 1.179-6.541 2.864-9.561 4.885-1.509 1.011-2.851 2.022-4.361 3.201-.671.506-1.342 1.18-2.012 1.685-.671.505-1.175 1.179-2.181 1.853-.503.337-1.006.674-2.013.506-.503 0-.838-.337-1.174-.674-.335-.337-.503-.843-.503-1.18 0-.842.168-1.516.503-2.021.336-.506.671-.842.839-1.179.335-.506.335-.843 0-1.517-.336-.505-.839-1.01-1.342-1.01-1.174-.337-2.684.336-3.69 1.516-.503.505-1.007 1.348-1.51 2.021-.503.674-1.006 1.517-1.677 2.359a7.446 7.446 0 0 1-2.516 2.022c-.503.168-1.174.336-1.845.336s-1.342-.336-1.845-.842c-1.007-1.011-1.342-2.021-1.678-2.864-.335-.842-.67-1.348-1.006-1.516-.839-.505-2.684 0-3.187 1.179-.839 1.348-1.006 3.033-.67 4.717.167.506-.336 1.18-.84 1.18-.335 0-.503 0-.838-.169-2.852-2.021-5.535-4.043-8.22-6.065l-4.193-3.032c-1.341-1.011-2.683-2.19-4.193-2.696-.67-.337-1.51-.505-2.18-.337-.671 0-1.342.506-1.678 1.011-.838 1.18-.838 3.033 0 4.38.671 1.517 1.845 2.696 3.02 4.044 1.174 1.01 2.348 2.19 3.857 3.369z" fill="#BFDFFF"/><path d="M1.641 454.194c1.342-1.179 3.355-1.516 5.2-1.516 6.541.337 7.715 8.423 1.51 10.613-5.033 1.853-11.407-4.885-6.71-9.097zm11.406-31.84c7.548-3.538 13.922 8.76 5.2 10.613-6.374 1.516-12.58-7.075-5.2-10.613zm19.793-1.685c1.173-1.348 2.85-2.022 4.528-2.359 2.18-.505 4.697-.505 6.877.337 7.884 3.033 6.039 13.815-1.845 15.331-6.374 1.011-14.928-7.413-9.56-13.309zm.335-15.331c6.374 2.19.67 8.592-4.193 7.413-6.374-1.853-1.51-9.266 4.193-7.413zm143.244 14.826c7.213 0 8.051 8.423 1.677 10.613-3.522 1.179-9.393.337-9.56-4.38-.168-4.212 4.361-6.233 7.883-6.233z" fill="#fff"/></svg>